<ttFont>
<head>
    <!-- Most of this table will be recalculated by the compiler -->
    <tableVersion value="1.0"/>
    <fontRevision value="1.0"/>
    <checkSumAdjustment value="0x8936b3c5"/>
    <magicNumber value="0x5f0f3cf5"/>
    <flags value="00000000 00000011"/>
    <unitsPerEm value="2048"/>
    <created value="Thu Aug 15 19:00:24 2019"/>
    <modified value="Fri Aug 16 02:19:16 2019"/>
    <xMin value="-564"/>
    <yMin value="-505"/>
    <xMax value="4087"/>
    <yMax value="2070"/>
<macStyle value="00000000 00000000"/>
    <lowestRecPPEM value="3"/>
    <fontDirectionHint value="2"/>
    <indexToLocFormat value="0"/>
    <glyphDataFormat value="0"/>
  </head>
          <CharString index="0">
            55 -16 9 -17 -60 vvcurveto
            -531 -81 callsubr
            return
          </CharString>
          <CharString index="1">
            -142 -19 vhcurveto
            -127 return
          </CharString>
          <CharString index="2">
            rmoveto
            77 callsubr
            return
          </CharString>
          <CharString index="3">
            322 -238 216 -359 -359 -252 -226 -326 return
          </CharString>
          <CharString index="4">
            -127 hlineto
            142 -19 return
          </CharString>
          <CharString index="5">
            453 -337 299 -457 -83 callgsubr
            vhcurveto
            -101 callgsubr
            70 callsubr
            endchar
          </CharString>
          <CharString index="6">
            -532 -73 callsubr
            return
          </CharString>
          <CharString index="7">
            52 callsubr
            endchar
          </CharString>
          <CharString index="8">
            rmoveto
            -20 callsubr
            64 callsubr
            endchar
          </CharString>
          <CharString index="9">
            rmoveto
            359 252 227 325 return
          </CharString>
          <CharString index="10">
            195 callsubr
            endchar
          </CharString>
          <CharString index="11">
            1555 rmoveto
            380 309 rlineto
            12 return
          </CharString>
          <CharString index="12">
            19 -22 callsubr
            -19 -20 return
          </CharString>
          <CharString index="13">
            rmoveto
            -1235 -103 callsubr
            -95 callsubr
            42 callsubr
            -43 callsubr
            endchar
          </CharString>
          <CharString index="14">
            -66 callsubr
            endchar
          </CharString>
          <CharString index="15">
            54 callsubr
            endchar
          </CharString>
          <CharString index="16">
            79 callsubr
            -441 vlineto
            -217 136 -126 210 190 127 90 105 52 vhcurveto
            -185 vlineto
            return
          </CharString>
          <CharString index="17">
            rmoveto
            -650 vlineto
            -29 callsubr
            241 callsubr
            endchar
          </CharString>
          <CharString index="18">
            65 callsubr
            endchar
          </CharString>
          <CharString index="19">
            rmoveto
            3 callsubr
            return
          </CharString>
          <CharString index="20">
            -406 vlineto
            -132 -321 rlineto
            return
          </CharString>
          <CharString index="21">
            -732 -48 callsubr
            return
          </CharString>
          <CharString index="22">
            -936 vlineto
            -88 -19 -20 return
          </CharString>
          <CharString index="23">
            rmoveto
            936 12 callsubr
            -85 callsubr
            -106 callsubr
            87 callsubr
            endchar
          </CharString>
          <CharString index="24">
            -68 callsubr
            556 vlineto
            return
          </CharString>
          <CharString index="25">
            1182 rmoveto
            402 397 rlineto
            15 -407 vlineto
            -155 -412 rlineto
            return
          </CharString>
          <CharString index="26">
            vlineto
            -70 -20 -18 -114 -13 vhcurveto
            -127 return
          </CharString>
          <CharString index="27">
            rmoveto
            102 83 71 99 100 -83 70 -102 -102 -84 -70 -100 -99 83 -71 103 hvcurveto
            endchar
          </CharString>
          <CharString index="28">
            684 127 vlineto
            -130 15 -22 18 83 vvcurveto
            return
          </CharString>
          <CharString index="29">
            -525 -73 callsubr
            return
          </CharString>
          <CharString index="30">
            141 18 vhcurveto
            127 -731 -127 vlineto
            129 -17 18 -18 -85 vvcurveto
            return
          </CharString>
          <CharString index="31">
            1593 rmoveto
            -230 -195 return
          </CharString>
          <CharString index="32">
            1182 rmoveto
            230 195 return
          </CharString>
          <CharString index="33">
            -122 65 -146 3 hvcurveto
            return
          </CharString>
          <CharString index="34">
            -66 0 -120 70 -19 rlineto
            return
          </CharString>
          <CharString index="35">
            rmoveto
            321 -789 -83 -118 -124 -170 -84 -115 rlinecurve
            -9 363 vlineto
            167 460 112 278 188 466 56 136 20 16 98 17 rlinecurve
            127 -434 -127 vlineto
            123 -10 11 -25 -44 -121 rrcurveto
            -146 -396 -141 396 -43 121 13 24 124 11 rlinecurve
            127 -666 -127 vlineto
            96 -19 19 -20 54 -133 rrcurveto
            endchar
          </CharString>
          <CharString index="36">
            1194 rmoveto
            250 callsubr
            return
          </CharString>
          <CharString index="37">
            rmoveto
            357 103 356 -103 0 125 -317 180 -79 0 -317 -180 rlineto
            return
          </CharString>
          <CharString index="38">
            1595 rmoveto
            672 187 -672 hlineto
            return
          </CharString>
          <CharString index="39">
            635 127 vlineto
            -89 12 -14 15 67 vvcurveto
            return
          </CharString>
          <CharString index="40">
            127 vlineto
            -149 19 -22 26 97 vvcurveto
            return
          </CharString>
          <CharString index="41">
            666 99 callsubr
            return
          </CharString>
          <CharString index="42">
            rmoveto
            324 -551 rlineto
            -315 -1 callsubr
            766 -67 callsubr
            331 vlineto
            324 552 74 125 26 196 callsubr
            -209 -382 -212 188 callsubr
            endchar
          </CharString>
          <CharString index="43">
            -384 -514 383 38 callsubr
            return
          </CharString>
          <CharString index="44">
            -142 -20 vhcurveto
            -127 732 127 vlineto
            return
          </CharString>
          <CharString index="45">
            rmoveto
            135 84 81 137 hvcurveto
            return
          </CharString>
          <CharString index="46">
            -936 vlineto
            -88 -19 -19 return
          </CharString>
          <CharString index="47">
            936 vlineto
            91 20 18 return
          </CharString>
          <CharString index="48">
            42 23 63 31 76 hhcurveto
            51 callgsubr
            -132 -89 -105 -52 vhcurveto
            return
          </CharString>
          <CharString index="49">
            -532 -67 0 -119 -88 callgsubr
            8 callsubr
            return
          </CharString>
          <CharString index="50">
            1 callsubr
            -211 146 -158 0 return
          </CharString>
          <CharString index="51">
            120 97 98 119 119 -97 98 -120 return
          </CharString>
          <CharString index="52">
            rmoveto
            180 123 75 125 125 -105 73 return
          </CharString>
          <CharString index="53">
            rmoveto
            694 187 -694 hlineto
            endchar
          </CharString>
          <CharString index="54">
            1182 rmoveto
            160 hlineto
            return
          </CharString>
          <CharString index="55">
            10 465 rlineto
            -120 hlineto
            return
          </CharString>
          <CharString index="56">
            -268 162 -96 185 137 141 50 53 62 vhcurveto
            94 callgsubr
            return
          </CharString>
          <CharString index="57">
            1184 rmoveto
            116 93 83 116 116 -93 81 -116 return
          </CharString>
          <CharString index="58">
            732 127 vlineto
            -129 19 -18 18 83 vvcurveto
            return
          </CharString>
          <CharString index="59">
            -127 vlineto
            142 -19 19 -20 -88 vvcurveto
            return
          </CharString>
          <CharString index="60">
            71 57 45 63 64 -57 45 -71 hvcurveto
            return
          </CharString>
          <CharString index="61">
            -61 -276 -61 -25 -247 -9 rrcurveto
            return
          </CharString>
          <CharString index="62">
            1578 90 callsubr
            return
          </CharString>
          <CharString index="63">
            rmoveto
            -172 148 -108 163 -25 vhcurveto
            -184 -38 -119 -89 -131 vvcurveto
            -122 117 -79 166 -7 vhcurveto
            -223 -14 -107 -69 -100 vvcurveto
            -142 203 -104 371 383 250 155 230 199 -161 124 -301 vhcurveto
            -225 hlineto
            -86 -46 27 48 37 26 28 48 17 hvcurveto
            -5 43 38 -2 39 hhcurveto
            304 226 113 213 83 -44 85 -60 33 hvcurveto
            240 -22 0 170 -387 -27 rlineto
            32 -74 -111 20 -112 hhcurveto
            -315 -210 -149 -209 hvcurveto
            389 14 rmoveto
            110 55 80 90 93 63 -72 -127 -113 -58 -80 -88 -89 -66 73 129 vhcurveto
            -69 -920 rmoveto
            58 43 42 77 10 vhcurveto
            182 hlineto
            122 53 -37 -66 -79 -93 -58 -156 -148 -80 52 78 hvcurveto
            endchar
          </CharString>
          <CharString index="64">
            11 465 rlineto
            -121 hlineto
            -63 -274 -48 -28 -242 -9 -233 -9 rcurveline
            518 171 vlineto
            70 24 -25 -167 29 hvcurveto
            114 530 -114 hlineto
            -166 -31 -22 -26 -70 hhcurveto
            -171 490 hlineto
            207 -7 229 -9 46 -33 57 -221 rlinecurve
            120 hlineto
            return
          </CharString>
          <CharString index="65">
            -241 -148 260 341 339 138 228 251 30 callgsubr
          </CharString>
          <CharString index="66">
            rmoveto
            103 82 71 99 100 -82 70 -103 -102 -83 -70 -100 -99 82 -71 103 hvcurveto
            endchar
          </CharString>
          <CharString index="67">
            rmoveto
            -94 -75 -66 -94 -94 75 -66 94 94 76 66 94 94 -75 66 -95 hvcurveto
            endchar
          </CharString>
          <CharString index="68">
            1203 rmoveto
            128 96 103 268 hvcurveto
            -146 hlineto
            -99 return
          </CharString>
          <CharString index="69">
            1555 rmoveto
            94 76 67 93 94 -76 67 -94 return
          </CharString>
          <CharString index="70">
            756 127 vlineto
            -150 19 -21 26 97 vvcurveto
            return
          </CharString>
          <CharString index="71">
            rmoveto
            216 52 189 152 229 vvcurveto
            return
          </CharString>
          <CharString index="72">
            660 1444 -19 callsubr
            return
          </CharString>
          <CharString index="73">
            165 146 68 134 136 return
          </CharString>
          <CharString index="74">
            -87 -70 -63 -88 -88 70 -63 87 hvcurveto
            return
          </CharString>
          <CharString index="75">
            1578 -104 callgsubr
            return
          </CharString>
          <CharString index="76">
            1555 rmoveto
            212 146 return
          </CharString>
          <CharString index="77">
            -493 rmoveto
            -34 callsubr
            return
          </CharString>
          <CharString index="78">
            -375 279 -205 348 return
          </CharString>
          <CharString index="79">
            424 hmoveto
            89 callsubr
            return
          </CharString>
          <CharString index="80">
            -61 -52 -75 -75 61 -53 74 hvcurveto
            return
          </CharString>
          <CharString index="81">
            rmoveto
            365 72 callgsubr
            return
          </CharString>
          <CharString index="82">
            rmoveto
            132 82 95 161 hvcurveto
            return
          </CharString>
          <CharString index="83">
            1892 rmoveto
            178 vlineto
            return
          </CharString>
          <CharString index="84">
            211 -146 158 0 return
          </CharString>
          <CharString index="85">
            -20 -88 vvcurveto
            -936 vlineto
            -88 return
          </CharString>
          <CharString index="86">
            rmoveto
            -454 351 -293 460 227 219 51 76 125 vhcurveto
            389 vlineto
            82 15 20 128 16 vhcurveto
            126 -665 -126 vlineto
            142 -15 17 -20 -81 vvcurveto
            -308 vlineto
            -25 -33 -57 -14 -68 hhcurveto
            -244 -150 260 341 339 137 228 249 172 114 -94 -230 57 hvcurveto
            120 hlineto
            -8 391 rlineto
            66 -97 84 callgsubr
          </CharString>
          <CharString index="87">
            -406 1115 -361 0 -408 -1112 -61 -164 -23 -24 -124 -17 rlinecurve
            -127 517 127 vlineto
            -153 22 -21 29 53 154 rrcurveto
            39 112 469 0 38 -112 53 -154 -21 -29 -152 -22 rlinecurve
            -127 return
          </CharString>
          <CharString index="88">
            rmoveto
            -616 -127 hlineto
            130 -22 18 -23 -107 vvcurveto
            -4 -912 rlineto
            -87 -18 -19 -129 -20 vhcurveto
            -127 489 127 vlineto
            -139 18 -18 21 -1 93 rrcurveto
            -15 812 606 -1071 468 0 8 1191 return
          </CharString>
          <CharString index="89">
            rmoveto
            271 -741 276 0 227 618 224 -618 276 0 275 744 51 137 18 15 92 17 rlinecurve
            127 -403 -127 vlineto
            105 -8 12 -27 -41 -121 rrcurveto
            229 callsubr
            endchar
          </CharString>
          <CharString index="90">
            1467 1413 1444 rmoveto
            -1359 hlineto
            78 callsubr
            -87 callgsubr
            765 -67 callsubr
            146 callsubr
            return
          </CharString>
          <CharString index="91">
            1602 rmoveto
            -140 -104 -54 -52 -56 hvcurveto
            -107 vlineto
            19 32 57 78 callgsubr
            205 76 77 70 94 vvcurveto
            111 -105 74 -148 vhcurveto
            return
          </CharString>
          <CharString index="92">
            1 87 16 19 129 20 rlinecurve
            127 -488 -127 vlineto
            138 -18 18 -21 1 -93 15 -818 rcurveline
            return
          </CharString>
          <CharString index="93">
            rmoveto
            -455 351 -292 460 199 201 48 72 99 vhcurveto
            10 391 rlineto
            -50 callgsubr
            return
          </CharString>
          <CharString index="94">
            1555 rmoveto
            95 75 67 93 94 -75 67 -95 109 callsubr
            return
          </CharString>
          <CharString index="95">
            104 83 74 104 104 -83 73 -104 -103 -84 -73 -104 -104 83 -74 104 hvcurveto
            return
          </CharString>
          <CharString index="96">
            10 517 rlineto
            -120 hlineto
            -75 -310 -72 -49 -198 -7 return
          </CharString>
          <CharString index="97">
            1892 rmoveto
            734 -84 0 101 -734 161 rlineto
            return
          </CharString>
          <CharString index="98">
            -116 -94 -81 -116 -116 94 -83 116 hvcurveto
            return
          </CharString>
          <CharString index="99">
            14 52 hhcurveto
            71 40 -24 -43 -40 -33 -39 -104 -64 hvcurveto
            return
          </CharString>
          <CharString index="100">
            -217 321 -304 0 -216 -321 rlineto
            return
          </CharString>
          <CharString index="101">
            -66 94 94 76 66 94 94 -76 66 -94 hvcurveto
            endchar
          </CharString>
          <CharString index="102">
            rmoveto
            -94 -75 -66 -94 -94 75 -6 callsubr
          </CharString>
          <CharString index="103">
            -532 -66 0 -119 -88 callgsubr
            return
          </CharString>
          <CharString index="104">
            -18 hlineto
            -71 -57 -45 -64 -63 57 -45 71 hvcurveto
            return
          </CharString>
          <CharString index="105">
            -78 -110 -111 89 -78 110 hvcurveto
            return
          </CharString>
          <CharString index="106">
            vlineto
            -97 -22 -26 -149 -19 vhcurveto
            -127 return
          </CharString>
          <CharString index="107">
            rmoveto
            695 187 -695 hlineto
            endchar
          </CharString>
          <CharString index="108">
            1876 rmoveto
            -212 -146 return
          </CharString>
          <CharString index="109">
            1544 106 callgsubr
            return
          </CharString>
          <CharString index="110">
            -337 259 -197 322 return
          </CharString>
          <CharString index="111">
            -130 18 -17 19 83 vvcurveto
            endchar
          </CharString>
          <CharString index="112">
            44 -23 -46 -45 -44 -22 -63 -54 return
          </CharString>
          <CharString index="113">
            1766 89 719 rmoveto
            return
          </CharString>
          <CharString index="114">
            1219 76 509 rmoveto
            return
          </CharString>
          <CharString index="115">
            -984 -81 callsubr
            return
          </CharString>
          <CharString index="116">
            883 172 339 rmoveto
            return
          </CharString>
          <CharString index="117">
            734 145 -734 hlineto
            return
          </CharString>
          <CharString index="118">
            254 rmoveto
            936 vlineto
            88 return
          </CharString>
          <CharString index="119">
            vlineto
            88 155 callsubr
            return
          </CharString>
          <CharString index="120">
            rmoveto
            352 -1116 352 0 294 939 278 -939 363 0 347 1114 51 164 29 23 122 16 rlinecurve
            127 -510 -127 vlineto
            145 -20 12 -26 -40 -147 rrcurveto
            -212 -776 -217 765 -45 156 12 26 150 22 rlinecurve
            127 -732 -127 vlineto
            145 -20 13 -26 -41 -147 rrcurveto
            -214 -778 -215 767 -43 156 10 26 150 22 rlinecurve
            127 108 callgsubr
            endchar
          </CharString>
          <CharString index="121">
            rmoveto
            409 113 vlineto
            362 -656 rlineto
            478 121 hlineto
            -71 27 -32 38 -131 228 rrcurveto
            -307 540 119 125 177 184 54 32 144 22 rlinecurve
            127 -584 -127 vlineto
            135 -15 24 -39 -90 -110 -283 -345 rcurveline
            -108 388 -15 callgsubr
            -732 -127 vlineto
            141 -19 20 -22 callsubr
            44 callgsubr
            endchar
          </CharString>
          <CharString index="122">
            -157 -6 rcurveline
            1044 vlineto
            88 21 19 150 21 -20 callgsubr
            -61 callsubr
            -142 -20 vhcurveto
            -127 vlineto
            return
          </CharString>
          <CharString index="123">
            1797 642 247 rmoveto
            93 callgsubr
            return
          </CharString>
          <CharString index="124">
            rmoveto
            242 -2 -195 158 -423 hhcurveto
            -776 -103 callsubr
            -95 callsubr
            -106 callsubr
            -49 callsubr
            172 callsubr
            endchar
          </CharString>
          <CharString index="125">
            -146 hlineto
            -51 -24 -24 -44 -26 -30 9 13 -36 vhcurveto
            -40 14 rlineto
            19 -49 -51 15 54 callgsubr
            return
          </CharString>
          <CharString index="126">
            rmoveto
            190 164 61 96 87 hvcurveto
            176 callsubr
            -335 258 -199 316 vhcurveto
            endchar
          </CharString>
          <CharString index="127">
            556 -56 callgsubr
            -452 162 callsubr
            197 callsubr
            return
          </CharString>
          <CharString index="128">
            1308 1254 hmoveto
            -11 callsubr
            15 callsubr
            return
          </CharString>
          <CharString index="129">
            87 70 63 88 88 -70 63 -87 -86 -70 -63 -88 -88 70 -63 86 hvcurveto
            return
          </CharString>
          <CharString index="130">
            22 -66 hhcurveto
            -125 -93 -97 -252 hvcurveto
            145 hlineto
            92 1 18 36 return
          </CharString>
          <CharString index="131">
            114 -13 20 -18 -69 vvcurveto
            -585 -81 callsubr
            return
          </CharString>
          <CharString index="132">
            rmoveto
            214 175 212 -175 85 callgsubr
          </CharString>
          <CharString index="133">
            1917 rmoveto
            -226 -128 -130 -156 -23 return
          </CharString>
          <CharString index="134">
            -251 -86 callgsubr
            183 callsubr
            endchar
          </CharString>
          <CharString index="135">
            hlineto
            -71 -57 -45 -64 -63 57 -45 71 hvcurveto
            403 hmoveto
            return
          </CharString>
          <CharString index="136">
            1566 rmoveto
            87 69 63 88 88 -69 63 -87 return
          </CharString>
          <CharString index="137">
            1459 564 1057 -91 callsubr
            return
          </CharString>
          <CharString index="138">
            216 -321 304 0 217 321 rlineto
            return
          </CharString>
          <CharString index="139">
            1263 rmoveto
            747 207 -747 hlineto
            return
          </CharString>
          <CharString index="140">
            1628 743 124 callsubr
            return
          </CharString>
          <CharString index="141">
            1182 rmoveto
            401 397 rlineto
            15 return
          </CharString>
          <CharString index="142">
            110 callgsubr
            241 412 rlineto
            return
          </CharString>
          <CharString index="143">
            -127 vlineto
            129 -19 18 -18 -83 vvcurveto
            return
          </CharString>
          <CharString index="144">
            61 53 75 75 -61 -59 callgsubr
            return
          </CharString>
          <CharString index="145">
            vlineto
            83 18 19 129 19 vhcurveto
            127 return
          </CharString>
          <CharString index="146">
            rlineto
            -97 vlineto
            2 8 19 2 14 hhcurveto
            70 return
          </CharString>
          <CharString index="147">
            -148 hlineto
            -43 -26 -21 -45 -27 -30 return
          </CharString>
          <CharString index="148">
            -143 412 rlineto
            -423 -15 hlineto
            return
          </CharString>
          <CharString index="149">
            -106 callsubr
            1281 vlineto
            return
          </CharString>
          <CharString index="150">
            13 vhcurveto
            127 -635 -127 vlineto
            return
          </CharString>
          <CharString index="151">
            1504 -25 callsubr
            return
          </CharString>
          <CharString index="152">
            rmoveto
            716 170 -716 hlineto
            return
          </CharString>
          <CharString index="153">
            -734 -161 rlineto
            -101 vlineto
            return
          </CharString>
          <CharString index="154">
            -733 -161 rlineto
            -101 vlineto
            return
          </CharString>
          <CharString index="155">
            -338 vlineto
            -62 -412 rlineto
            return
          </CharString>
          <CharString index="156">
            -133 -90 -105 -52 vhcurveto
            endchar
          </CharString>
          <CharString index="157">
            146 -23 callsubr
            return
          </CharString>
          <CharString index="158">
            rmoveto
            -94 -76 -66 -94 -94 76 return
          </CharString>
          <CharString index="159">
            rmoveto
            172 132 72 101 63 hvcurveto
            -102 32 119 -65 135 hhcurveto
            100 82 28 35 48 hvcurveto
            121 vlineto
            -4 -12 -15 -2 -19 hhcurveto
            -52 -43 32 80 hvcurveto
            403 vlineto
            274 -188 117 -316 -312 -197 -126 -152 -92 70 -60 104 105 74 71 92 36 -13 33 -20 26 vhcurveto
            5 26 28 3 30 hhcurveto
            138 80 -64 -159 hvcurveto
            -52 vlineto
            -220 -47 rlineto
            -332 -70 -110 -118 -155 vvcurveto
            -149 118 -112 193 vhcurveto
            73 324 rmoveto
            86 58 53 153 34 vhcurveto
            67 15 rlineto
            -246 vlineto
            -39 -25 -54 -29 -65 hhcurveto
            -75 -59 45 81 hvcurveto
            return
          </CharString>
          <CharString index="160">
            rmoveto
            -116 -164 -40 -26 -136 -18 rrcurveto
            -127 540 127 vlineto
            -144 21 -9 30 89 135 rrcurveto
            159 241 161 -241 89 -134 -9 -31 -144 -21 rlinecurve
            -127 796 127 vlineto
            -112 27 -42 27 -82 122 rrcurveto
            -305 458 244 352 112 161 43 25 135 18 rlinecurve
            127 -536 -127 vlineto
            144 -21 7 -29 -87 -136 rrcurveto
            -152 -235 -157 235 -88 134 9 31 144 21 rlinecurve
            127 -797 -127 vlineto
            113 -27 42 -27 82 -122 301 -453 rcurveline
            endchar
          </CharString>
          <CharString index="161">
            196 168 58 99 91 vhcurveto
            126 vlineto
            -43 -56 -94 -25 -84 hhcurveto
            -212 -141 112 195 -39 hvcurveto
            650 hlineto
            4 22 3 40 42 vvcurveto
            284 -186 179 -309 -334 -238 -217 -338 vhcurveto
            572 392 rmoveto
            99 51 -90 -149 hvcurveto
            -9 0 -7 -6 vvcurveto
            -322 hlineto
            168 6 64 93 102 hhcurveto
            return
          </CharString>
          <CharString index="162">
            rmoveto
            292 -238 152 -416 vhcurveto
            -766 -103 callsubr
            -95 callsubr
            -106 callsubr
            -37 callsubr
            260 181 vlineto
            397 257 176 295 hvcurveto
            -445 -19 rmoveto
            -187 -111 -109 -212 -8 vhcurveto
            -67 -3 0 625 67 -3 rlineto
            224 -9 99 -118 -188 vvcurveto
            endchar
          </CharString>
          <CharString index="163">
            271 -130 230 -195 125 vhcurveto
            -6 34 37 -4 38 hhcurveto
            173 119 68 139 1 hvcurveto
            1 113 -90 108 -112 60 rrcurveto
            -125 hlineto
            24 -31 16 -63 -55 vvcurveto
            -127 -2 -67 -102 -146 -107 -117 26 -146 -40 callgsubr
            70 callsubr
            endchar
          </CharString>
          <CharString index="164">
            rmoveto
            181 122 75 125 125 -105 73 65 callgsubr
            58 -1 43 -20 -39 vvcurveto
            -39 -42 -23 -69 -56 103 callgsubr
          </CharString>
          <CharString index="165">
            181 -73 152 -150 88 hvcurveto
            -13 48 55 -7 51 hhcurveto
            158 106 71 125 1 hvcurveto
            2 112 -87 113 -109 58 rrcurveto
            -125 hlineto
            24 -31 16 225 callsubr
            endchar
          </CharString>
          <CharString index="166">
            rmoveto
            -662 -127 hlineto
            129 -17 21 -27 -3 -108 rrcurveto
            -19 -912 -2 -90 -16 -18 -128 -18 rlinecurve
            -127 482 127 vlineto
            -129 18 -18 19 221 callsubr
            endchar
          </CharString>
          <CharString index="167">
            -145 hlineto
            -51 -25 -24 -44 -26 -30 9 13 -35 vhcurveto
            -40 14 rlineto
            19 -50 -51 15 -56 hhcurveto
            -131 -83 -95 -161 hvcurveto
            145 hlineto
            51 25 23 44 26 30 -8 return
          </CharString>
          <CharString index="168">
            430 vlineto
            41 44 112 29 109 hhcurveto
            66 67 -10 -15 36 hvcurveto
            16 30 11 57 54 vvcurveto
            111 -49 91 -110 -118 -96 -91 -216 -95 vhcurveto
            return
          </CharString>
          <CharString index="169">
            1408 76 506 152 callsubr
            203 callsubr
            return
          </CharString>
          <CharString index="170">
            1186 rmoveto
            241 137 150 183 26 -1 25 -95 callgsubr
            -147 vlineto
            -3 159 callsubr
            return
          </CharString>
          <CharString index="171">
            770 127 vlineto
            -124 17 -26 24 -59 161 rrcurveto
            -895 269 rmoveto
            183 531 181 -531 rlineto
            return
          </CharString>
          <CharString index="172">
            526 59 0 119 -70 20 rlineto
            -55 15 -9 18 60 vvcurveto
            781 vlineto
            -101 callsubr
            41 callgsubr
            return
          </CharString>
          <CharString index="173">
            487 vlineto
            283 -7 0 170 -283 -7 rlineto
            254 -108 vlineto
            -412 -302 rlineto
            -115 130 vlineto
            return
          </CharString>
          <CharString index="174">
            rmoveto
            -542 -66 0 -120 73 -19 rlineto
            60 -17 11 -16 -60 vvcurveto
            -441 vlineto
            -217 211 callsubr
            endchar
          </CharString>
          <CharString index="175">
            rmoveto
            -6 -353 rlineto
            120 hlineto
            58 -35 callgsubr
            -508 153 callsubr
            45 callgsubr
            endchar
          </CharString>
          <CharString index="176">
            -147 -94 -78 -25 -31 -33 hvcurveto
            -107 vlineto
            21 8 34 6 33 -1 rrcurveto
            58 -1 44 -20 -39 vvcurveto
            -39 return
          </CharString>
          <CharString index="177">
            209 123 -260 -339 -330 -96 -239 -226 -209 -123 260 339 vhcurveto
            return
          </CharString>
          <CharString index="178">
            780 595 1510 rmoveto
            -4 callsubr
            8 callsubr
            -66 callsubr
            return
          </CharString>
          <CharString index="179">
            -36 vhcurveto
            -41 12 rlineto
            16 -51 -52 13 -58 hhcurveto
            -134 -85 -81 -137 hvcurveto
            149 hlineto
            43 25 return
          </CharString>
          <CharString index="180">
            228 -195 161 0 -240 412 -298 0 -241 -412 rlineto
            return
          </CharString>
          <CharString index="181">
            rmoveto
            329 -177 202 -241 -161 -125 -81 -113 -52 vhcurveto
            return
          </CharString>
          <CharString index="182">
            1566 rmoveto
            87 70 63 88 88 -70 63 -87 -86 -70 -63 -88 -88 return
          </CharString>
          <CharString index="183">
            42 23 63 31 76 hhcurveto
            51 callgsubr
            -133 -90 -105 -52 vhcurveto
            return
          </CharString>
          <CharString index="184">
            -453 336 -299 457 481 315 328 430 return
          </CharString>
          <CharString index="185">
            -9 -415 rlineto
            120 hlineto
            47 229 48 32 220 7 42 return
          </CharString>
          <CharString index="186">
            rmoveto
            -531 -66 0 -120 69 -19 rlineto
            55 -16 10 -17 -60 vvcurveto
            return
          </CharString>
          <CharString index="187">
            rmoveto
            214 175 213 -175 150 0 -224 371 return
          </CharString>
          <CharString index="188">
            69 -63 87 hvcurveto
            391 hmoveto
            87 69 63 88 88 -69 63 -87 return
          </CharString>
          <CharString index="189">
            1921 rmoveto
            -122 -91 -46 -45 -49 hvcurveto
            -90 vlineto
            16 return
          </CharString>
          <CharString index="190">
            1783 rmoveto
            -89 -89 -32 -43 -54 hvcurveto
            -93 vlineto
            16 34 return
          </CharString>
          <CharString index="191">
            1570 rmoveto
            226 128 131 156 22 return
          </CharString>
          <CharString index="192">
            -139 -145 -86 -117 -146 vhcurveto
            105 -4 71 return
          </CharString>
          <CharString index="193">
            -120 -96 -98 -119 -119 96 -98 120 hvcurveto
            return
          </CharString>
          <CharString index="194">
            745 127 vlineto
            -141 19 -19 20 88 vvcurveto
            return
          </CharString>
          <CharString index="195">
            217 -321 303 0 217 321 rlineto
            return
          </CharString>
          <CharString index="196">
            75 60 53 75 75 -60 52 -75 hvcurveto
            -19 hlineto
            -74 return
          </CharString>
          <CharString index="197">
            rmoveto
            209 vlineto
            -716 -188 rlineto
            -120 vlineto
            return
          </CharString>
          <CharString index="198">
            1388 rmoveto
            -140 143 -94 195 return
          </CharString>
          <CharString index="199">
            1263 rmoveto
            746 207 -746 hlineto
            return
          </CharString>
          <CharString index="200">
            14 17 -32 hvcurveto
            -122 vlineto
            -29 55 82 -17 return
          </CharString>
          <CharString index="201">
            -73 callsubr
            54 -16 10 -17 -60 vvcurveto
            return
          </CharString>
          <CharString index="202">
            -89 -78 -110 -111 88 -78 111 hvcurveto
            return
          </CharString>
          <CharString index="203">
            1182 rmoveto
            228 397 rlineto
            15 return
          </CharString>
          <CharString index="204">
            -127 vlineto
            114 -13 20 -18 -70 vvcurveto
            return
          </CharString>
          <CharString index="205">
            -60 callgsubr
            -241 -412 rlineto
            return
          </CharString>
          <CharString index="206">
            127 vlineto
            -114 13 -20 18 70 vvcurveto
            return
          </CharString>
          <CharString index="207">
            115 190 -7 hvcurveto
            -145 hlineto
            -67 return
          </CharString>
          <CharString index="208">
            vlineto
            88 18 20 142 19 vhcurveto
            127 return
          </CharString>
          <CharString index="209">
            -31 callsubr
            212 -146 return
          </CharString>
          <CharString index="210">
            -216 321 113 callsubr
            return
          </CharString>
          <CharString index="211">
            -149 hlineto
            -43 -25 -21 -45 -27 -30 return
          </CharString>
          <CharString index="212">
            -23 13 24 -35 hvcurveto
            -32 22 rlineto
            41 return
          </CharString>
          <CharString index="213">
            -44 -122 hhcurveto
            -122 -87 45 66 return
          </CharString>
          <CharString index="214">
            -86 -71 -63 -88 -88 70 -63 87 hvcurveto
            return
          </CharString>
          <CharString index="215">
            -93 -76 -66 -94 -94 75 -66 94 hvcurveto
            return
          </CharString>
          <CharString index="216">
            -93 -76 -67 -94 -93 75 -67 94 hvcurveto
            return
          </CharString>
          <CharString index="217">
            -94 -76 -67 -94 -93 76 -67 94 hvcurveto
            return
          </CharString>
          <CharString index="218">
            -1207 -98 callsubr
            return
          </CharString>
          <CharString index="219">
            -407 vlineto
            -154 -412 rlineto
            return
          </CharString>
          <CharString index="220">
            -304 0 -217 -321 rlineto
            return
          </CharString>
          <CharString index="221">
            673 -25 -98 callsubr
            return
          </CharString>
          <CharString index="222">
            19 20 142 19 vhcurveto
            127 return
          </CharString>
          <CharString index="223">
            -94 -76 -66 -94 -94 76 -66 94 return
          </CharString>
          <CharString index="224">
            rmoveto
            -234 285 190 232 76 94 36 25 101 13 rlinecurve
            127 -454 -127 vlineto
            106 -15 5 -22 -70 -88 rrcurveto
            -91 -115 -95 115 -70 87 6 23 108 15 rlinecurve
            127 -638 -127 vlineto
            65 -16 31 -19 82 -100 rrcurveto
            233 -286 -180 -212 -90 -106 -36 -28 -115 -19 rlinecurve
            -127 474 127 vlineto
            -98 15 -12 23 71 91 rrcurveto
            88 111 94 -114 70 -86 -10 -24 -102 -16 rlinecurve
            -127 640 127 vlineto
            -68 17 -33 23 -80 97 rrcurveto
            endchar
          </CharString>
          <CharString index="225">
            rmoveto
            -112 -102 -42 -49 -57 hvcurveto
            -121 vlineto
            3 9 18 2 18 hhcurveto
            64 25 -35 -101 hvcurveto
            -86 -4 -140 -89 vvcurveto
            -266 167 -160 305 314 211 220 390 305 -108 175 -171 -137 -80 -129 -167 36 vhcurveto
            153 -22 109 -136 -167 vvcurveto
            -162 -89 -94 -120 -125 -65 92 165 vhcurveto
            73 6 165 85 vvcurveto
            191 -92 100 -173 vhcurveto
            endchar
          </CharString>
          <CharString index="226">
            1685 842 -31 rmoveto
            415 339 340 414 414 -339 340 -415 -414 -339 -340 -414 -414 339 -340 414 hvcurveto
            100 vmoveto
            -352 -289 295 359 359 289 295 352 352 290 -295 -359 -359 -290 -295 -352 hvcurveto
            return
          </CharString>
          <CharString index="227">
            rmoveto
            352 292 157 314 220 -128 149 -287 87 hvcurveto
            -131 39 rlineto
            -144 44 -73 56 96 vvcurveto
            103 78 74 153 178 123 -102 -199 43 vhcurveto
            120 hlineto
            -9 363 rlineto
            233 callsubr
            -67 105 207 -51 214 hhcurveto
            return
          </CharString>
          <CharString index="228">
            rmoveto
            -183 138 -94 202 -48 vhcurveto
            106 -25 rlineto
            109 -27 41 -31 -58 vvcurveto
            -64 37 callgsubr
            -38 175 hhcurveto
            331 198 138 215 175 -106 101 -228 53 hvcurveto
            -30 callgsubr
            4 callgsubr
            hvcurveto
            return
          </CharString>
          <CharString index="229">
            rmoveto
            214 -167 128 -255 22 vhcurveto
            195 18 162 102 176 vvcurveto
            221 -211 131 -385 vhcurveto
            -784 -103 callsubr
            -95 callsubr
            -106 callsubr
            219 callsubr
            endchar
          </CharString>
          <CharString index="230">
            rmoveto
            14 -704 rlineto
            -251 6 126 -110 210 hhcurveto
            147 131 59 80 63 hvcurveto
            121 vlineto
            -21 -37 -49 -11 -53 hhcurveto
            -110 -71 58 142 5 hvcurveto
            25 637 rlineto
            endchar
          </CharString>
          <CharString index="231">
            rmoveto
            452 -339 249 -507 vhcurveto
            -725 -103 callsubr
            -95 callsubr
            -106 callsubr
            -49 callgsubr
            -466 -22 8 callgsubr
            return
          </CharString>
          <CharString index="232">
            -147 -94 -78 -25 -31 -32 hvcurveto
            -107 vlineto
            20 8 34 6 34 -1 rrcurveto
            57 -1 44 -20 -39 vvcurveto
            -39 -42 -23 -70 -55 103 callgsubr
          </CharString>
          <CharString index="233">
            467 596 rmoveto
            239 162 176 -96 callgsubr
            -240 -161 -176 -258 -256 162 -178 225 hvcurveto
            return
          </CharString>
          <CharString index="234">
            rmoveto
            222 143 100 callsubr
            -4 -87 106 callsubr
            -4 hvcurveto
            -145 hlineto
            -190 -7 144 -115 221 hhcurveto
            endchar
          </CharString>
          <CharString index="235">
            -132 27 hvcurveto
            110 23 72 68 93 vvcurveto
            115 -119 78 -169 -182 -123 -100 -137 -52 vhcurveto
            76 -43 rlineto
            return
          </CharString>
          <CharString index="236">
            -892 vlineto
            -311 -67 -129 -221 -144 vhcurveto
            49 -108 rlineto
            442 158 221 153 367 vvcurveto
            endchar
          </CharString>
          <CharString index="237">
            55 -16 9 -17 -60 vvcurveto
            -584 vlineto
            -289 -31 -124 -163 -142 vhcurveto
            65 -102 95 252 callsubr
          </CharString>
          <CharString index="238">
            230 149 118 176 -119 504 -236 hlineto
            -390 -526 rlineto
            -154 397 vlineto
            return
          </CharString>
          <CharString index="239">
            1541 45 callsubr
            165 -552 rmoveto
            return
          </CharString>
          <CharString index="240">
            1194 rmoveto
            111 89 78 111 110 -89 78 -111 -109 -90 -2 callsubr
            return
          </CharString>
          <CharString index="241">
            -127 vlineto
            85 -11 13 -16 -67 vvcurveto
            -674 -285 674 vlineto
            67 13 16 85 11 vhcurveto
            127 return
          </CharString>
          <CharString index="242">
            1594 rmoveto
            -344 -15 hlineto
            329 92 callgsubr
            185 -397 rlineto
            168 hlineto
            return
          </CharString>
          <CharString index="243">
            1628 186 1197 rmoveto
            -650 vlineto
            -29 callsubr
            241 callsubr
            return
          </CharString>
          <CharString index="244">
            rmoveto
            357 103 357 -103 0 125 -318 180 -79 0 -317 -180 rlineto
            endchar
          </CharString>
          <CharString index="245">
            -584 vlineto
            -289 -32 -124 -163 -142 vhcurveto
            66 -102 94 252 callsubr
          </CharString>
          <CharString index="246">
            158 -92 108 85 callsubr
            -58 -91 vvcurveto
            -84 -70 -57 -86 -24 vhcurveto
            endchar
          </CharString>
          <CharString index="247">
            66 14 15 89 43 callsubr
            24 callsubr
            -68 callsubr
            endchar
          </CharString>
          <CharString index="248">
            -1 -19 -39 -46 hhcurveto
            -29 -25 14 26 -37 hvcurveto
            -32 23 rlineto
            45 -64 -54 23 -69 hhcurveto
            return
          </CharString>
          <CharString index="249">
            -228 195 -161 0 240 -412 298 0 241 412 rlineto
            return
          </CharString>
          <CharString index="250">
            -211 146 -159 0 217 -321 304 0 217 321 rlineto
            return
          </CharString>
          <CharString index="251">
            62 14 51 hhcurveto
            84 39 -29 -39 -39 -40 -29 -98 -20 hvcurveto
            110 -72 rlineto
            return
          </CharString>
          <CharString index="252">
            -26 -177 -150 -234 vvcurveto
            -199 121 -135 231 -80 vhcurveto
            return
          </CharString>
          <CharString index="253">
            1030 vlineto
            42 -2 220 -7 48 -32 47 -229 rlinecurve
            120 hlineto
            return
          </CharString>
          <CharString index="254">
            -102 -268 hvcurveto
            147 hlineto
            99 1 18 39 46 88 callgsubr
            return
          </CharString>
          <CharString index="255">
            1876 rmoveto
            -342 -12 hlineto
            309 -309 rlineto
            179 hlineto
            return
          </CharString>
          <CharString index="256">
            1555 rmoveto
            158 hlineto
            -119 321 rlineto
            -422 -12 hlineto
            return
          </CharString>
          <CharString index="257">
            1555 rmoveto
            158 hlineto
            -118 321 rlineto
            -422 -12 hlineto
            return
          </CharString>
          <CharString index="258">
            -1043 -430 1043 vlineto
            83 18 18 129 19 vhcurveto
            127 return
          </CharString>
          <CharString index="259">
            rmoveto
            -329 177 -202 241 161 125 80 113 return
          </CharString>
          <CharString index="260">
            -785 rlineto
            -113 963 vlineto
            5 369 rlineto
            -121 hlineto
            return
          </CharString>
          <CharString index="261">
            -195 -143 -94 -140 vhcurveto
            237 hmoveto
            67 45 45 56 return
          </CharString>
          <CharString index="262">
            19 20 141 19 vhcurveto
            127 -745 -48 callsubr
            return
          </CharString>
          <CharString index="263">
            vlineto
            -85 -18 -18 -129 -17 -107 callgsubr
            -141 18 return
          </CharString>
          <CharString index="264">
            1873 rmoveto
            734 -84 0 101 -734 161 rlineto
            return
          </CharString>
          <CharString index="265">
            195 143 94 140 140 -143 94 -195 return
          </CharString>
          <CharString index="266">
            -19 -2 -25 -26 vvcurveto
            -183 137 -150 242 vhcurveto
            return
          </CharString>
          <CharString index="267">
            rmoveto
            -5 -353 rlineto
            120 hlineto
            57 -35 callgsubr
            return
          </CharString>
          <CharString index="268">
            rmoveto
            -95 -75 -66 -94 -94 75 -66 95 -22 callgsubr
          </CharString>
          <CharString index="269">
            vlineto
            -67 -14 -15 -89 -12 vhcurveto
            -127 635 127 vlineto
            return
          </CharString>
          <CharString index="270">
            -115 -94 -81 -116 -116 93 -83 116 hvcurveto
            return
          </CharString>
          <CharString index="271">
            150 33 87 61 104 vvcurveto
            102 -103 66 -144 vhcurveto
            return
          </CharString>
          <CharString index="272">
            0 367 -24 callsubr
            46 callsubr
            return
          </CharString>
          <CharString index="273">
            -2444 rmoveto
            298 2444 -298 hlineto
            return
          </CharString>
          <CharString index="274">
            -51 callgsubr
            -104 -84 -63 callgsubr
            return
          </CharString>
          <CharString index="275">
            -585 vlineto
            -69 -20 -18 -114 -13 vhcurveto
            -127 return
          </CharString>
          <CharString index="276">
            rmoveto
            182 158 88 181 46 hvcurveto
            -162 86 182 -107 192 hhcurveto
            193 164 59 98 89 hvcurveto
            126 vlineto
            -43 -54 -94 -25 -83 hhcurveto
            -207 -137 113 197 -37 hvcurveto
            634 hlineto
            4 23 3 39 41 vvcurveto
            283 -185 179 -292 -128 -118 -44 -67 -68 vhcurveto
            70 -58 -116 41 -178 hhcurveto
            -264 -201 -114 -149 -89 68 -65 99 111 81 72 90 31 -10 30 -18 24 hvcurveto
            4 22 23 2 25 hhcurveto
            143 78 -70 -161 hvcurveto
            -44 vlineto
            -222 -40 rlineto
            -301 -53 -138 -111 -174 vvcurveto
            -176 139 -97 187 vhcurveto
            835 926 rmoveto
            94 47 -88 -149 hvcurveto
            -8 0 -7 -6 vvcurveto
            -306 hlineto
            167 7 62 91 96 hhcurveto
            -661 -728 rmoveto
            -72 -48 46 79 95 70 58 159 28 hvcurveto
            52 9 rlineto
            -112 vlineto
            -144 -72 -59 -89 vhcurveto
            endchar
          </CharString>
          <CharString index="277">
            rmoveto
            -1167 hlineto
            -522 -1096 -86 -181 -46 -27 -113 -13 rlinecurve
            -127 521 127 vlineto
            -135 20 -19 45 70 157 rrcurveto
            83 186 433 0 5 -288 rlineto
            -85 -18 -18 -130 -17 vhcurveto
            -127 1168 vlineto
            -52 callsubr
            -60 -273 -44 -26 -234 -12 rrcurveto
            -179 -9 -6 518 rlineto
            125 hlineto
            69 24 -25 -167 31 hvcurveto
            114 hlineto
            -7 530 rlineto
            -114 hlineto
            -166 -27 -22 -26 -71 hhcurveto
            -124 hlineto
            -7 490 153 -7 230 -12 45 -29 60 -220 rlinecurve
            120 hlineto
            -1080 268 rmoveto
            79 hlineto
            8 -610 rlineto
            -361 hlineto
            endchar
          </CharString>
          <CharString index="278">
            1590 642 247 rmoveto
            409 113 vlineto
            362 -656 rlineto
            478 121 hlineto
            -71 27 -32 38 -131 228 rrcurveto
            -307 540 119 125 177 184 54 32 144 22 rlinecurve
            127 -584 -127 vlineto
            135 -15 24 -39 -90 -110 -283 -345 rcurveline
            -108 388 -15 callgsubr
            -732 -127 vlineto
            141 -19 20 -22 callsubr
            44 callgsubr
            return
          </CharString>
          <CharString index="279">
            352 150 vlineto
            288 -599 rlineto
            455 121 hlineto
            -57 17 -40 36 -98 193 rrcurveto
            -163 326 178 57 99 125 -1 169 rlinecurve
            -426 -24 rmoveto
            -175 -125 -93 -173 -5 vhcurveto
            -87 -3 0 555 79 -3 rlineto
            198 -7 108 -100 -169 vvcurveto
            return
          </CharString>
          <CharString index="280">
            rmoveto
            70 57 45 63 64 -57 45 -70 hvcurveto
            -98 callgsubr
            403 hmoveto
            72 56 45 63 64 -56 45 -72 hvcurveto
            -3 callsubr
            return
          </CharString>
          <CharString index="281">
            460 121 hlineto
            -64 22 -40 37 -105 202 rrcurveto
            -186 353 159 132 58 27 133 19 rlinecurve
            127 -559 -127 vlineto
            150 -19 5 -36 -118 -109 -145 -139 rcurveline
            -98 901 hlineto
            -58 callsubr
            -68 callsubr
            245 103 vlineto
            return
          </CharString>
          <CharString index="282">
            684 -23 callgsubr
            297 vlineto
            -60 53 114 -45 110 hhcurveto
            263 210 207 352 hvcurveto
            -406 -29 rmoveto
            -230 -82 -122 -122 -68 -52 30 38 -20 vhcurveto
            552 vlineto
            45 22 54 32 65 hhcurveto
            122 81 -120 -225 hvcurveto
            endchar
          </CharString>
          <CharString index="283">
            126 vlineto
            -45 -56 -100 -23 -86 hhcurveto
            -206 -160 136 249 202 107 124 152 27 25 -4 -6 22 hvcurveto
            -45 -31 -29 -53 -61 vvcurveto
            -97 76 -72 99 98 81 71 114 168 -146 135 -279 -321 -274 -207 -349 return
          </CharString>
          <CharString index="284">
            65 -596 rmoveto
            253 hlineto
            953 1444 rlineto
            -254 hlineto
            -1005 -735 38 callgsubr
            1309 -728 rmoveto
            239 161 176 -96 callgsubr
            -239 -162 -177 -257 -257 162 -177 226 hvcurveto
            return
          </CharString>
          <CharString index="285">
            53 vhcurveto
            -183 vlineto
            524 59 0 119 -69 20 rlineto
            -55 15 -10 18 60 vvcurveto
            1233 vlineto
            -532 -65 0 -119 71 -20 rlineto
            54 -15 10 -18 -60 vvcurveto
            -252 vlineto
            61 -54 -113 44 -111 hhcurveto
            -262 -210 -207 -352 hvcurveto
            return
          </CharString>
          <CharString index="286">
            1553 1453 1044 rmoveto
            242 -2 -195 158 -423 hhcurveto
            -776 -103 callsubr
            -95 callsubr
            -106 callsubr
            -49 callsubr
            172 callsubr
            return
          </CharString>
          <CharString index="287">
            41 20 59 32 72 hhcurveto
            97 64 -64 -122 hvcurveto
            -443 vlineto
            -67 -15 -15 -89 -12 vhcurveto
            -127 605 127 vlineto
            -90 12 -14 15 67 vvcurveto
            218 callsubr
            endchar
          </CharString>
          <CharString index="288">
            22 -4 16 hvcurveto
            -141 -3 hlineto
            -83 -82 -59 -126 -123 -84 60 82 vhcurveto
            3 -141 vlineto
            -4 -17 -2 -21 -22 vvcurveto
            -156 129 -131 225 vhcurveto
            return
          </CharString>
          <CharString index="289">
            rmoveto
            227 148 98 161 -8 hvcurveto
            -148 hlineto
            -56 -4 -90 -38 -125 hhcurveto
            -124 -90 -71 callgsubr
            589 -1198 -99 callsubr
          </CharString>
          <CharString index="290">
            -1194 vlineto
            -9 -415 rlineto
            120 hlineto
            54 215 46 38 226 7 rrcurveto
            276 10 -732 -1178 rlineto
            -121 vlineto
            return
          </CharString>
          <CharString index="291">
            1590 rmoveto
            -36 callgsubr
            3 -19 hvcurveto
            147 53 callgsubr
            1 24 27 vvcurveto
            182 -137 151 -241 vhcurveto
            return
          </CharString>
          <CharString index="292">
            rmoveto
            -343 -12 hlineto
            309 -309 rlineto
            179 hlineto
            289 321 rmoveto
            -307 -12 hlineto
            164 -309 rlineto
            167 hlineto
            return
          </CharString>
          <CharString index="293">
            404 hmoveto
            71 56 45 63 64 -56 45 -71 hvcurveto
            -98 callgsubr
            return
          </CharString>
          <CharString index="294">
            -17 hvcurveto
            142 4 hlineto
            82 81 60 126 124 83 -60 -82 vhcurveto
            -4 142 vlineto
            3 17 2 -43 callgsubr
            return
          </CharString>
          <CharString index="295">
            382 -71 130 11 30 147 17 rlinecurve
            127 -770 -127 vlineto
            115 -16 29 -28 83 -138 rrcurveto
            return
          </CharString>
          <CharString index="296">
            -16 hvcurveto
            107 -63 rlineto
            148 29 85 53 87 vvcurveto
            88 -101 55 -141 vhcurveto
            -669 -521 -26 callsubr
            return
          </CharString>
          <CharString index="297">
            2 -21 4 -17 hvcurveto
            141 4 hlineto
            82 82 60 125 124 84 -60 -82 vhcurveto
            -4 141 vlineto
            4 17 return
          </CharString>
          <CharString index="298">
            rmoveto
            119 89 92 241 hvcurveto
            -136 hlineto
            -89 61 callgsubr
            -65 hhcurveto
            -119 14 callgsubr
          </CharString>
          <CharString index="299">
            112 rmoveto
            -75 -48 94 228 227 41 93 74 75 48 -93 -228 -228 -42 -93 -73 hvcurveto
            return
          </CharString>
          <CharString index="300">
            3 328 rlineto
            275 142 -274 hlineto
            2 170 -398 -50 rlineto
            -120 -134 vlineto
            endchar
          </CharString>
          <CharString index="301">
            2015 rmoveto
            -88 -86 -27 -36 -54 hvcurveto
            -80 vlineto
            14 34 60 12 50 hhcurveto
            82 39 -24 -34 -33 return
          </CharString>
          <CharString index="302">
            -322 239 -216 358 hvcurveto
            14 164 rmoveto
            -120 -80 19 callgsubr
            return
          </CharString>
          <CharString index="303">
            24 118 16 rlinecurve
            127 -500 -127 vlineto
            147 -17 10 -30 -70 -130 rrcurveto
            return
          </CharString>
          <CharString index="304">
            -115 13 -19 18 70 vvcurveto
            497 vlineto
            214 -142 126 -218 -195 return
          </CharString>
          <CharString index="305">
            391 hmoveto
            87 70 63 88 88 -70 63 -87 -86 -70 -63 -88 -88 69 -63 87 hvcurveto
            return
          </CharString>
          <CharString index="306">
            75 60 53 74 75 -60 52 -75 hvcurveto
            -19 hlineto
            -74 -61 -52 -75 -74 61 -53 74 hvcurveto
            return
          </CharString>
          <CharString index="307">
            1570 rmoveto
            226 129 131 156 22 -2 181 callsubr
            return
          </CharString>
          <CharString index="308">
            1029 vlineto
            178 -6 215 -7 53 -34 55 -215 rlinecurve
            121 hlineto
            endchar
          </CharString>
          <CharString index="309">
            63 1199 rmoveto
            134 -971 hlineto
            -70 -20 -18 -114 -13 vhcurveto
            -127 return
          </CharString>
          <CharString index="310">
            178 callsubr
            405 29 rmoveto
            230 83 122 23 callgsubr
            return
          </CharString>
          <CharString index="311">
            35 42 hhcurveto
            28 23 -12 -24 34 hvcurveto
            30 -21 rlineto
            -40 59 51 -21 64 hhcurveto
            endchar
          </CharString>
          <CharString index="312">
            rmoveto
            355 251 226 324 142 -47 122 -82 91 hvcurveto
            97 96 -99 102 -108 -107 rlineto
            58 -96 -120 33 -138 hhcurveto
            -355 -251 -225 -325 -144 48 -123 84 -91 hvcurveto
            -91 -90 99 -102 103 102 rlineto
            -57 95 119 -32 136 hhcurveto
            -193 554 rmoveto
            236 69 136 124 69 57 -47 -86 36 vhcurveto
            -349 -344 rlineto
            -4 33 -2 35 37 vvcurveto
            206 -393 rmoveto
            -68 -56 46 82 -36 hvcurveto
            347 343 rlineto
            4 -31 2 -33 -35 vvcurveto
            -237 -70 -135 -123 vhcurveto
            endchar
          </CharString>
          <CharString index="313">
            -209 71 -177 122 -129 vhcurveto
            -128 -134 107 -104 135 141 rlineto
            -90 132 167 -50 187 hhcurveto
            481 315 328 430 210 -72 176 -123 129 hvcurveto
            129 134 -107 104 -136 -141 rlineto
            90 -131 -167 50 -187 -40 callgsubr
            116 89 -80 -128 57 vhcurveto
            -564 -588 rlineto
            -13 70 -7 76 81 vvcurveto
            654 -30 rmoveto
            -330 -96 -239 -226 -116 -89 80 129 -57 vhcurveto
            564 587 rlineto
            13 -69 7 -77 -81 vvcurveto
            endchar
          </CharString>
          <CharString index="314">
            rmoveto
            -306 183 -161 223 180 126 105 168 72 vhcurveto
            -153 52 115 -120 205 hhcurveto
            272 1 178 233 336 vvcurveto
            319 -125 201 -179 -152 -85 -154 -164 67 vhcurveto
            160 -31 104 -141 -152 vvcurveto
            -123 -70 -77 -97 -125 -76 118 250 vhcurveto
            198 -328 -205 vlineto
            -264 -66 -97 -94 -91 -48 91 171 196 65 174 118 121 vhcurveto
            -80 88 rlineto
            -309 -88 -195 -238 -296 vvcurveto
            endchar
          </CharString>
          <CharString index="315">
            rmoveto
            178 110 103 182 86 hvcurveto
            -196 48 84 -85 141 hhcurveto
            96 94 48 78 61 hvcurveto
            120 vlineto
            -12 -15 -25 -10 -27 hhcurveto
            -68 -58 55 250 -63 hvcurveto
            230 530 rlineto
            -360 hlineto
            -17 -78 -20 -84 -23 -85 rrcurveto
            177 -71 -111 96 -210 hhcurveto
            -274 -185 -223 -329 -352 174 -185 225 hvcurveto
            4 564 rmoveto
            214 59 124 91 88 46 -89 -212 33 vhcurveto
            21 -134 rlineto
            -169 -64 -57 -61 -74 hhcurveto
            -92 -51 129 198 hvcurveto
            endchar
          </CharString>
          <CharString index="316">
            rmoveto
            252 187 89 130 103 hvcurveto
            127 vlineto
            -58 -77 -134 -41 -152 hhcurveto
            -150 -83 40 74 79 90 41 170 hvcurveto
            76 hlineto
            -45 221 rlineto
            -48 hlineto
            -184 -71 39 70 71 74 45 145 56 48 -6 -10 40 hvcurveto
            -20 -24 -12 -32 -34 vvcurveto
            -76 54 -63 96 85 63 68 82 130 -140 128 -337 -347 -182 -131 -180 -175 165 -87 245 4 vhcurveto
            -257 -3 -180 -79 -164 vvcurveto
            -176 192 -99 278 vhcurveto
            endchar
          </CharString>
          <CharString index="317">
            362 258 230 375 3 vhcurveto
            5 784 rlineto
            -1 12 12 -1 11 hhcurveto
            174 113 73 130 114 -85 100 -107 58 hvcurveto
            -125 hlineto
            24 -31 16 -62 -58 vvcurveto
            -120 -2 -76 -114 -192 hhcurveto
            -130 -127 hlineto
            153 -24 18 -17 -88 vvcurveto
            3 -602 rlineto
            -250 1 -117 -119 -197 hhcurveto
            -197 -140 124 230 hvcurveto
            617 vlineto
            88 20 17 150 24 vhcurveto
            127 -747 -127 vlineto
            133 -22 20 -19 -88 vvcurveto
            return
          </CharString>
          <CharString index="318">
            137 -126 209 190 127 90 105 53 vhcurveto
            -185 vlineto
            536 59 0 119 -73 20 rlineto
            -61 17 -11 16 60 vvcurveto
            654 vlineto
            -2 17 17 -1 19 hhcurveto
            139 100 73 128 1 hvcurveto
            2 111 -86 109 -110 58 rrcurveto
            -125 hlineto
            20 -27 18 -55 -61 vvcurveto
            -151 -105 -72 -304 -34 vhcurveto
            -144 -16 0 -119 72 -19 rlineto
            61 -17 11 -16 -60 vvcurveto
            -497 vlineto
            -40 -24 -57 -32 -69 hhcurveto
            -104 -58 64 115 hvcurveto
            return
          </CharString>
          <CharString index="319">
            rmoveto
            -106 89 -76 116 166 124 109 267 150 vhcurveto
            461 826 61 109 23 23 124 16 rlinecurve
            127 -507 -127 vlineto
            161 -19 6 -19 -57 -114 rrcurveto
            -238 -475 -250 475 -59 112 8 21 161 19 rlinecurve
            127 -779 -127 vlineto
            124 -16 21 -24 62 -108 rrcurveto
            496 -863 -38 -68 -36 -48 -41 -31 rlinecurve
            91 -8 -72 73 -93 hhcurveto
            -99 -76 -79 -95 hvcurveto
            endchar
          </CharString>
          <CharString index="320">
            407 hlineto
            57 -7 702 0 vhcurveto
            53 24 56 37 74 hhcurveto
            105 59 -63 -183 -349 -4 -393 -9 -321 hvcurveto
            407 1118 hlineto
            288 -146 119 -220 -195 -124 -97 -115 -52 vhcurveto
            124 -19 -80 82 -145 hhcurveto
            -104 -101 -43 -48 -54 hvcurveto
            -121 vlineto
            3 9 20 2 18 hhcurveto
            79 31 -38 -110 -4 hvcurveto
            endchar
          </CharString>
          <CharString index="321">
            rmoveto
            329 -177 201 -241 -160 -125 -79 -112 -52 vhcurveto
            6 635 -532 -65 0 -119 -88 callgsubr
            -1212 211 vlineto
            116 137 rlineto
            -86 61 121 -75 152 hhcurveto
            270 216 69 callgsubr
            -52 31 37 -20 vhcurveto
            551 vlineto
            46 22 54 32 65 hhcurveto
            121 82 -121 -224 hvcurveto
            return
          </CharString>
          <CharString index="322">
            rmoveto
            109 96 42 55 47 hvcurveto
            122 vlineto
            -11 -14 -24 -9 -29 hhcurveto
            -68 -51 72 119 27 6 32 10 26 hvcurveto
            304 38 205 213 294 vvcurveto
            -104 callsubr
            -301 209 -209 321 -25 vhcurveto
            -87 -67 -69 -92 -100 vvcurveto
            -122 108 -90 135 vhcurveto
            -6 632 rmoveto
            -120 -80 19 callgsubr
            endchar
          </CharString>
          <CharString index="323">
            rmoveto
            635 vlineto
            264 -7 0 170 -264 -6 rlineto
            174 vlineto
            122 41 51 68 8 vhcurveto
            -9 -18 -5 -20 -22 vvcurveto
            -81 59 -54 78 74 61 55 80 117 -112 91 -206 -261 -180 -149 -295 vhcurveto
            -60 vlineto
            -140 -49 rlineto
            -115 134 -642 -81 callsubr
            -79 callsubr
            endchar
          </CharString>
          <CharString index="324">
            hvcurveto
            692 vlineto
            2 15 15 1 16 hhcurveto
            25 23 -2 -5 22 hvcurveto
            -22 -27 -14 -34 -40 vvcurveto
            -94 70 -76 99 94 78 68 102 162 -154 100 -267 10 vhcurveto
            177 -100 -179 vlineto
            -302 -22 -244 -203 -330 vvcurveto
            -327 243 -197 303 -9 vhcurveto
            -177 vlineto
            -153 777 rmoveto
            140 58 return
          </CharString>
          <CharString index="325">
            520 vlineto
            15 -1 14 -1 13 vhcurveto
            38 22 58 29 71 hhcurveto
            98 65 -64 -122 hvcurveto
            -443 vlineto
            -67 -14 -15 -90 -12 vhcurveto
            -127 635 99 callsubr
            489 vlineto
            224 -138 124 -215 -191 -133 -98 -101 -47 vhcurveto
            130 -37 -127 69 -170 hhcurveto
            -188 -134 -96 -99 -45 hvcurveto
            return
          </CharString>
          <CharString index="326">
            784 vlineto
            368 293 156 276 hvcurveto
            -492 620 rmoveto
            -149 -94 -79 -164 vhcurveto
            -110 475 hlineto
            85 -3 rlineto
            188 -7 95 -86 -151 vvcurveto
            46 -637 rmoveto
            -178 -130 -82 -199 -7 vhcurveto
            -85 -3 rlineto
            533 110 vlineto
            195 109 -97 -166 hvcurveto
            return
          </CharString>
          <CharString index="327">
            397 -1116 362 0 400 1112 59 164 24 24 124 17 rlinecurve
            127 -517 -127 vlineto
            153 -22 19 -29 -51 -154 rrcurveto
            -266 -795 -263 796 -51 153 19 29 153 22 rlinecurve
            127 -771 -127 vlineto
            124 -17 28 -24 57 -160 rrcurveto
            return
          </CharString>
          <CharString index="328">
            91 vvcurveto
            -5 913 384 -1168 247 0 113 394 246 776 19 -923 2 -85 -20 -18 -129 -17 rlinecurve
            -127 723 127 vlineto
            -141 18 -18 18 -2 91 rrcurveto
            -18 936 -2 91 21 18 141 18 rlinecurve
            127 vlineto
            -666 3 -261 -917 rlineto
            return
          </CharString>
          <CharString index="329">
            rmoveto
            344 254 223 327 326 -232 214 -355 -346 -254 -222 -328 -325 232 -215 357 hvcurveto
            11 164 rmoveto
            -118 -72 150 244 236 64 132 115 115 73 -149 -245 -237 -64 -131 -113 hvcurveto
            endchar
          </CharString>
          <CharString index="330">
            1366 -743 rmoveto
            10 465 rlineto
            -121 hlineto
            -46 callsubr
            -250 -86 callgsubr
            -1195 vlineto
            -9 -415 rlineto
            121 hlineto
            53 215 47 38 226 7 rrcurveto
            276 10 -733 -1178 rlineto
            -121 vlineto
            -621 721 8 callgsubr
            endchar
          </CharString>
          <CharString index="331">
            293 -741 276 0 294 744 54 136 19 16 97 17 rlinecurve
            127 -428 -127 vlineto
            121 -10 13 -26 -43 -120 rrcurveto
            -143 -401 -145 401 -43 122 15 23 121 11 rlinecurve
            127 -672 -127 vlineto
            97 -19 21 -20 53 -133 rrcurveto
            return
          </CharString>
          <CharString index="332">
            -62 -1 -57 rrcurveto
            -123 -1 -73 -100 -149 -89 -81 31 -139 hhcurveto
            -354 -238 -236 -316 -323 233 -215 364 hvcurveto
            14 164 rmoveto
            -120 -80 150 242 237 66 133 120 120 81 -150 -242 -238 -67 -132 -120 hvcurveto
            return
          </CharString>
          <CharString index="333">
            rmoveto
            203 -476 vlineto
            187 101 rlineto
            189 103 84 90 111 vvcurveto
            132 -107 108 -179 -194 -115 -102 -145 -50 vhcurveto
            77 -38 rlineto
            68 31 60 46 81 hhcurveto
            84 50 -46 -65 -74 -42 -60 -132 -114 hvcurveto
            -188 -158 rlineto
            -160 vlineto
            endchar
          </CharString>
          <CharString index="334">
            -425 295 -289 413 -34 vhcurveto
            -87 -63 -68 -95 -96 vvcurveto
            -129 105 -81 140 108 96 38 58 49 vhcurveto
            122 vlineto
            -11 -14 -26 -8 -27 hhcurveto
            -61 -61 66 105 36 7 32 12 26 hvcurveto
            431 38 277 313 403 vvcurveto
            -102 callsubr
          </CharString>
          <CharString index="335">
            rmoveto
            194 -153 130 -301 vhcurveto
            -221 146 hlineto
            83 22 18 130 15 vhcurveto
            127 -684 -127 vlineto
            24 callsubr
            769 vlineto
            264 248 callsubr
            71 -70 -108 -112 -79 -64 -132 -4 hvcurveto
            -65 -3 rlineto
            361 vlineto
            endchar
          </CharString>
          <CharString index="336">
            -127 -378 -122 378 -39 121 11 27 99 8 rlinecurve
            127 -620 -127 vlineto
            100 -8 12 -27 -41 -121 rrcurveto
            -128 -378 -123 378 -39 121 12 26 103 9 rlinecurve
            127 -644 -127 vlineto
            89 -19 25 -20 49 -133 rrcurveto
            return
          </CharString>
          <CharString index="337">
            103 268 hvcurveto
            -147 hlineto
            -99 -1 -18 -39 -46 -29 callgsubr
            -63 -55 23 -69 hhcurveto
            244 callsubr
            46 hhcurveto
            29 25 -15 -25 37 hvcurveto
            32 -24 rlineto
            -44 64 54 -24 69 hhcurveto
            return
          </CharString>
          <CharString index="338">
            hlineto
            -63 -145 -181 -45 -209 -7 rrcurveto
            92 vlineto
            282 39 251 199 323 vvcurveto
            332 -274 269 -491 -495 -271 -270 -347 -307 249 -211 285 -27 vhcurveto
            -92 vlineto
            -212 7 -177 43 -66 147 rrcurveto
            return
          </CharString>
          <CharString index="339">
            1578 1502 432 rmoveto
            214 -167 128 -255 22 vhcurveto
            195 18 162 102 176 vvcurveto
            221 -211 131 -385 vhcurveto
            -784 -103 callsubr
            -95 callsubr
            -106 callsubr
            219 callsubr
            return
          </CharString>
          <CharString index="340">
            66 -99 -175 43 -197 hhcurveto
            -402 -240 -190 -272 -217 143 -149 272 -81 hvcurveto
            131 -39 rlineto
            149 -45 68 -62 -103 vvcurveto
            -105 -90 -76 -151 -190 -153 100 215 -48 vhcurveto
            -121 hlineto
            10 -368 rlineto
            return
          </CharString>
          <CharString index="341">
            1182 rmoveto
            190 397 rlineto
            15 -321 vlineto
            -31 -412 rlineto
            -229 22 rmoveto
            -79 callgsubr
            108 callsubr
            740 hmoveto
            -79 callgsubr
            108 callsubr
            endchar
          </CharString>
          <CharString index="342">
            1412 1444 rmoveto
            -1358 hlineto
            -9 -408 rlineto
            120 hlineto
            49 225 57 27 208 6 21 1 rcurveline
            -1026 vlineto
            -97 -21 -26 -150 -19 vhcurveto
            -127 756 127 vlineto
            -142 18 -19 18 91 vvcurveto
            return
          </CharString>
          <CharString index="343">
            -493 rmoveto
            96 108 27 41 49 hvcurveto
            122 vlineto
            -11 -19 -34 -9 -39 hhcurveto
            -61 -52 35 71 77 51 68 155 116 hvcurveto
            -150 -1 rlineto
            -269 -137 -78 -110 -103 vvcurveto
            -121 103 -65 140 vhcurveto
            endchar
          </CharString>
          <CharString index="344">
            rmoveto
            228 106 56 callgsubr
            -188 355 165 159 58 19 125 18 rlinecurve
            127 -526 -127 vlineto
            120 -14 17 -42 -109 -107 -156 -156 rcurveline
            -103 225 hlineto
            140 callsubr
          </CharString>
          <CharString index="345">
            rmoveto
            224 128 135 165 23 -2 23 -3 17 hvcurveto
            -136 -4 hlineto
            -85 -82 -62 -129 -128 -84 63 84 vhcurveto
            4 -136 vlineto
            -3 -18 -2 -22 -23 vvcurveto
            -165 128 -135 225 vhcurveto
            endchar
          </CharString>
          <CharString index="346">
            373 155 vlineto
            71 24 -25 -168 29 hvcurveto
            114 530 -114 hlineto
            -166 -30 -22 -26 -72 hhcurveto
            -155 512 hlineto
            184 -6 233 -9 47 -32 57 -223 rlinecurve
            121 hlineto
            endchar
          </CharString>
          <CharString index="347">
            126 vlineto
            -43 -56 -94 -25 -84 hhcurveto
            -212 -141 112 195 -39 hvcurveto
            650 hlineto
            4 22 3 40 42 vvcurveto
            284 -186 179 -309 -334 -238 -217 11 callgsubr
          </CharString>
          <CharString index="348">
            381 240 236 369 3 vhcurveto
            5 620 1 86 17 20 129 19 rlinecurve
            127 -491 -127 vlineto
            142 -19 17 -21 1 -91 5 -579 rcurveline
            -1 callgsubr
            return
          </CharString>
          <CharString index="349">
            283 1477 rmoveto
            -104 -75 -61 -103 -2 hvcurveto
            -68 21 -58 37 -117 vhcurveto
            83 -264 80 0 82 264 35 114 24 62 -1 67 rlinecurve
            103 -1 -76 61 -103 hhcurveto
            return
          </CharString>
          <CharString index="350">
            -138 47 rlineto
            -138 49 -60 58 85 vvcurveto
            93 74 61 return
          </CharString>
          <CharString index="351">
            -128 -96 -102 -268 hvcurveto
            146 hlineto
            99 1 19 39 return
          </CharString>
          <CharString index="352">
            -127 677 127 vlineto
            -141 20 -19 19 88 vvcurveto
            return
          </CharString>
          <CharString index="353">
            213 195 267 hvcurveto
            -446 -8 rmoveto
            -180 -88 return
          </CharString>
          <CharString index="354">
            194 144 82 125 125 -144 82 -194 return
          </CharString>
          <CharString index="355">
            174 126 201 hvcurveto
            -604 179 rmoveto
            134 return
          </CharString>
          <CharString index="356">
            162 -177 225 hvcurveto
            12 112 rmoveto
            -76 -47 94 return
          </CharString>
          <CharString index="357">
            110 89 78 111 110 -89 78 -110 -110 return
          </CharString>
          <CharString index="358">
            56 45 -45 -67 -67 -45 -45 -56 -56 -45 45 67 vhcurveto
            endchar
          </CharString>
          <CharString index="359">
            55 rlineto
            317 191 115 162 310 vvcurveto
            endchar
          </CharString>
          <CharString index="360">
            20 2 24 27 vvcurveto
            182 -137 151 -242 vhcurveto
            return
          </CharString>
          <CharString index="361">
            -4 hlineto
            -95 -88 -68 -139 -137 -90 69 94 vhcurveto
            4 return
          </CharString>
          <CharString index="362">
            -5 rrcurveto
            -161 -5 511 787 rlineto
            113 vlineto
            endchar
          </CharString>
          <CharString index="363">
            -23 -403 -365 -507 vvcurveto
            -407 214 -253 return
          </CharString>
          <CharString index="364">
            rmoveto
            228 397 rlineto
            15 -339 vlineto
            -61 -412 rlineto
            return
          </CharString>
        <CharString name=".notdef">
          2048 56 -494 rmoveto
          298 2444 -298 hlineto
          410 166 callsubr
          409 166 callsubr
          410 166 callsubr
          409 166 callsubr
          endchar
        </CharString>
        <CharString name=".null">
          0 endchar
        </CharString>
        <CharString name="A">
          1582 1378 329 -99 callsubr
        </CharString>
        <CharString name="AE">
          2033 1918 1444 170 callsubr
        </CharString>
        <CharString name="AEacute">
          2033 1270 -96 callsubr
          -87 callsubr
          806 -111 170 callsubr
        </CharString>
        <CharString name="AEmacron">
          2033 948 -69 callsubr
          970 -338 170 callsubr
        </CharString>
        <CharString name="Aacute">
          1582 775 -96 callsubr
          -87 callsubr
          761 -1226 -99 callsubr
        </CharString>
        <CharString name="Abreve">
          1582 789 84 callsubr
          -1 181 callsubr
          589 -1241 -99 callsubr
        </CharString>
        <CharString name="Abreveacute">
          1582 1156 -24 callsubr
          47 callsubr
          366 -281 182 callsubr
        </CharString>
        <CharString name="Abrevecyrillic">
          1582 789 -61 callgsubr
          -87 -84 -64 callgsubr
          79 callgsubr
          -57 -60 -86 -151 158 -96 224 vhcurveto
          589 -1228 -99 callsubr
        </CharString>
        <CharString name="Abrevedotbelow">
          1582 789 84 callsubr
          -1 181 callsubr
          589 -1241 rmoveto
          -20 callsubr
          64 callsubr
          -126 -732 -40 callsubr
        </CharString>
        <CharString name="Abrevegrave">
          1582 422 -10 callsubr
          367 -543 182 callsubr
        </CharString>
        <CharString name="Abrevehookabove">
          1582 779 2066 rmoveto
          -92 -90 -27 -36 -57 hvcurveto
          -79 vlineto
          13 36 63 13 52 hhcurveto
          85 41 -25 -33 -33 -41 -26 -101 -16 hvcurveto
          113 -62 rlineto
          154 28 89 97 callgsubr
          148 98 161 -8 hvcurveto
          -148 hlineto
          -56 -4 -90 -38 -125 hhcurveto
          -124 -90 -71 callgsubr
          589 -1198 -99 callsubr
        </CharString>
        <CharString name="Abrevetilde">
          1582 937 1832 rmoveto
          135 84 80 137 hvcurveto
          -148 hlineto
          -43 -26 -20 -45 -27 -30 7 12 72 callsubr
          20 45 27 30 -7 -11 37 vhcurveto
          41 -13 rlineto
          -15 50 52 -13 58 hhcurveto
          -148 -305 182 callsubr
        </CharString>
        <CharString name="Acaron">
          1582 1019 -57 callsubr
          31 callsubr
          203 -1547 -99 callsubr
        </CharString>
        <CharString name="Acircumflex">
          1582 596 102 callsubr
          158 0 -217 321 113 callsubr
          938 -1226 -99 callsubr
        </CharString>
        <CharString name="Acircumflexacute">
          1582 1156 1873 rmoveto
          178 vlineto
          47 callsubr
          1 -295 -26 callsubr
          954 -1271 -99 callsubr
        </CharString>
        <CharString name="Acircumflexdotbelow">
          1582 596 102 callsubr
          158 0 -217 321 113 callsubr
          938 -1226 rmoveto
          -20 callsubr
          64 callsubr
          -126 -732 -40 callsubr
        </CharString>
        <CharString name="Acircumflexgrave">
          1582 422 157 callsubr
          2 -557 -26 callsubr
          954 -1271 -99 callsubr
        </CharString>
        <CharString name="Acircumflexhookabove">
          1582 1093 194 callsubr
          -40 -25 -95 189 callsubr
          954 -1271 -99 callsubr
        </CharString>
        <CharString name="Acircumflextilde">
          1582 937 1813 -62 callsubr
          40 callsubr
          7 12 72 callsubr
          -44 callgsubr
          50 52 -42 callgsubr
          954 -1271 -99 callsubr
        </CharString>
        <CharString name="Acyrillic">
          1582 1378 329 -99 callsubr
        </CharString>
        <CharString name="Adblgrave">
          1582 624 148 callsubr
          68 callgsubr
          296 -1226 -99 callsubr
        </CharString>
        <CharString name="Adieresis">
          1582 594 75 callsubr
          81 callsubr
          107 callsubr
          393 -1237 -99 callsubr
        </CharString>
        <CharString name="Adieresismacron">
          1582 422 1867 -106 callgsubr
          184 -463 rmoveto
          -47 callsubr
          -98 callgsubr
          186 callsubr
          406 -1219 -99 callsubr
        </CharString>
        <CharString name="Adotaccent">
          1582 789 -13 callsubr
          589 -1226 -99 callsubr
        </CharString>
        <CharString name="Adotbelow">
          1582 1378 329 rmoveto
          -20 callsubr
          64 callsubr
          -126 -732 -40 callsubr
        </CharString>
        <CharString name="Adotmacron">
          1582 422 1838 rmoveto
          10 callsubr
          32 callgsubr
          589 -1205 -99 callsubr
        </CharString>
        <CharString name="Agrave">
          1582 839 149 callsubr
          922 -1535 -99 callsubr
        </CharString>
        <CharString name="Ahookabove">
          1582 829 82 callsubr
          29 51 -8 callsubr
          -34 callgsubr
          -90 63 -132 vhcurveto
          549 -1592 -99 callsubr
        </CharString>
        <CharString name="Ainvertedbreve">
          1582 789 26 callsubr
          190 callsubr
          1 -43 callgsubr
          589 -1588 -99 callsubr
        </CharString>
        <CharString name="Alphagreek">
          1582 1378 329 -99 callsubr
        </CharString>
        <CharString name="Alphatonosgreek">
          1582 1378 329 rmoveto
          -20 callsubr
          770 127 vlineto
          -124 17 -26 24 -59 161 rrcurveto
          -1148 703 257 callsubr
          425 -434 rmoveto
          183 531 181 -531 rlineto
          endchar
        </CharString>
        <CharString name="Amacron">
          1582 453 -69 callsubr
          925 -1453 -99 callsubr
        </CharString>
        <CharString name="Aogonek">
          1582 1218 -84 callgsubr
          48 hvcurveto
          122 vlineto
          -11 -13 -26 -8 -28 hhcurveto
          -60 -61 71 110 44 10 41 15 28 hvcurveto
          280 127 hlineto
          -124 17 -26 24 -59 161 rrcurveto
          -20 callsubr
          331 vlineto
          -96 -65 -79 -108 -110 vvcurveto
          -129 105 -81 140 vhcurveto
          -735 1091 rmoveto
          183 531 181 -531 rlineto
          endchar
        </CharString>
        <CharString name="Aring">
          1582 485 1762 rmoveto
          -127 129 -86 175 176 129 86 127 127 -129 87 -176 -175 -129 -86 -128 vhcurveto
          213 hmoveto
          59 41 39 50 50 41 -39 -59 -58 -41 -40 -50 -50 -41 40 58 vhcurveto
          680 -1433 -99 callsubr
        </CharString>
        <CharString name="Aringacute">
          1582 1156 1875 rmoveto
          178 vlineto
          -733 -160 rlineto
          -102 vlineto
          410 109 callgsubr
          -87 hlineto
          -153 -103 -51 -77 -77 103 -51 153 hvcurveto
          65 86 rmoveto
          -43 hlineto
          -45 -24 58 callgsubr
          567 -1269 -99 callsubr
        </CharString>
        <CharString name="Aringbelow">
          1582 1378 329 rmoveto
          -20 callsubr
          64 callsubr
          -464 -892 rmoveto
          -125 144 -82 194 195 143 82 125 125 -143 82 -195 -194 -144 -82 -125 vhcurveto
          238 hmoveto
          53 45 36 55 56 45 -36 -53 -53 -45 -36 -56 -55 -45 37 52 vhcurveto
          endchar
        </CharString>
        <CharString name="Atilde">
          1582 934 1544 rmoveto
          126 93 96 253 hvcurveto
          -146 hlineto
          -92 -1 -17 -36 -44 hhcurveto
          -29 105 callsubr
          -69 callgsubr
          1 18 36 44 hhcurveto
          28 24 -14 -23 35 -21 callgsubr
          444 -1215 -99 callsubr
        </CharString>
        <CharString name="B">
          1578 1502 432 122 callsubr
        </CharString>
        <CharString name="Bdotaccent">
          1578 784 -93 callgsubr
          718 -1123 122 callsubr
        </CharString>
        <CharString name="Bdotbelow">
          232 callsubr
          -272 -549 rmoveto
          116 callsubr
          93 77 66 94 94 -76 66 -94 hvcurveto
          endchar
        </CharString>
        <CharString name="Becyrillic">
          1533 1463 427 rmoveto
          266 -222 153 -382 vhcurveto
          -219 450 hlineto
          226 -7 231 -6 47 -33 57 -214 rlinecurve
          120 hlineto
          -9 408 rlineto
          -1255 -127 hlineto
          141 -19 -95 callsubr
          -141 -19 vhcurveto
          -127 807 vlineto
          373 226 163 264 hvcurveto
          -445 -7 rmoveto
          -164 -101 -98 -193 -7 vhcurveto
          -84 -2 0 542 84 -2 rlineto
          189 -7 105 -102 -160 vvcurveto
          endchar
        </CharString>
        <CharString name="Betagreek">
          1578 1502 432 122 callsubr
        </CharString>
        <CharString name="Blinebelow">
          232 callsubr
          -619 -802 -54 callsubr
        </CharString>
        <CharString name="C">
          1493 89 714 -14 callsubr
          -42 callsubr
        </CharString>
        <CharString name="Cacute">
          1493 865 -96 callsubr
          -87 callsubr
          -618 -841 -14 callsubr
          -42 callsubr
        </CharString>
        <CharString name="Ccaron">
          1493 1110 1 callsubr
          -25 callgsubr
          -1176 -1162 -14 callsubr
          -42 callsubr
        </CharString>
        <CharString name="Ccedilla">
          1493 89 714 rmoveto
          -419 298 -281 406 -41 vhcurveto
          -89 -100 39 callsubr
          5 callsubr
          -51 93 callsubr
          95 hhcurveto
          -34 callsubr
          -74 callsubr
          54 55 rlineto
          184 6 179 46 92 67 10 391 rcurveline
          -50 callgsubr
          -42 callsubr
        </CharString>
        <CharString name="Ccedillaacute">
          1493 865 -96 callsubr
          -87 callsubr
          -618 -841 rmoveto
          -419 298 -281 406 -41 vhcurveto
          -89 -100 39 callsubr
          5 callsubr
          -51 93 callsubr
          95 hhcurveto
          -34 callsubr
          -74 callsubr
          54 55 rlineto
          184 6 179 46 92 67 10 391 rcurveline
          -50 callgsubr
          -42 callsubr
        </CharString>
        <CharString name="Ccircumflex">
          1493 687 -31 callsubr
          -23 callsubr
          -217 321 -303 0 -217 -321 rlineto
          -442 -841 -14 callsubr
          -42 callsubr
        </CharString>
        <CharString name="Cdotaccent">
          1493 880 64 callgsubr
          76 -67 94 hvcurveto
          -791 -841 -14 callsubr
          -42 callsubr
        </CharString>
        <CharString name="Checyrillic">
          1747 1529 254 rmoveto
          936 101 callsubr
          -731 -127 vlineto
          129 -17 18 -18 -85 vvcurveto
          -428 vlineto
          -22 -55 -83 -15 -89 hhcurveto
          -179 -92 88 197 hvcurveto
          180 vlineto
          85 17 18 130 17 vhcurveto
          127 -718 -127 vlineto
          129 -17 18 -18 -85 vvcurveto
          -187 vlineto
          -322 205 -154 325 166 143 34 40 83 vhcurveto
          -339 vlineto
          -97 -24 -24 -157 -21 vhcurveto
          -127 765 127 vlineto
          -142 19 -18 20 88 vvcurveto
          endchar
        </CharString>
        <CharString name="Chigreek">
          1534 295 335 53 callsubr
        </CharString>
        <CharString name="D">
          1705 33 callsubr
          endchar
        </CharString>
        <CharString name="Dbar">
          1705 57 669 rmoveto
          161 -415 hlineto
          -88 -19 -20 -106 callsubr
          753 vlineto
          455 363 301 442 452 -339 249 -507 hvcurveto
          -725 -89 callgsubr
          -379 -161 vlineto
          1105 -90 rmoveto
          -351 -172 -213 -260 -9 vhcurveto
          -88 -3 rlineto
          524 267 142 -267 488 vlineto
          88 -3 264 -10 167 -222 1 -343 rlinecurve
          endchar
        </CharString>
        <CharString name="Dcaron">
          1705 1037 -57 callsubr
          31 callsubr
          435 -1133 124 callsubr
          endchar
        </CharString>
        <CharString name="Dcircumflexbelow">
          1705 33 callsubr
          -627 -1200 80 callsubr
          -277 0 -224 -371 rlineto
          endchar
        </CharString>
        <CharString name="Dcommaaccent">
          1705 33 callsubr
          -447 -1214 -55 callsubr
          69 callsubr
          -42 -23 -70 -70 callgsubr
        </CharString>
        <CharString name="Ddotaccent">
          1705 807 -13 callsubr
          821 -812 124 callsubr
          endchar
        </CharString>
        <CharString name="Ddotbelow">
          1705 33 callsubr
          -413 -855 -5 callsubr
        </CharString>
        <CharString name="Decyrillic">
          1618 1575 154 rmoveto
          -200 1021 -16 callgsubr
          -1350 -127 vlineto
          158 -17 24 -19 -5 -113 rrcurveto
          -8 -200 -19 -389 -42 -277 -129 -148 rlinecurve
          -151 hlineto
          -8 -466 rlineto
          125 hlineto
          271 61 88 41 238 hhcurveto
          542 hlineto
          253 74 -51 -261 60 hvcurveto
          126 hlineto
          -632 466 rmoveto
          -565 hlineto
          103 162 36 255 18 397 13 322 rcurveline
          395 hlineto
          endchar
        </CharString>
        <CharString name="Deltagreek">
          1454 34 hmoveto
          1386 212 hlineto
          -512 1232 -361 0 -513 -1231 rlineto
          222 68 rmoveto
          349 887 348 -887 rlineto
          endchar
        </CharString>
        <CharString name="Djecyrillic">
          1857 235 callsubr
          351 vlineto
          23 37 61 16 65 hhcurveto
          171 102 -110 -236 -255 -95 -188 -201 -144 hvcurveto
          57 -103 rlineto
          388 132 275 259 351 vvcurveto
          316 -214 178 -312 -143 -125 -37 -40 -66 vhcurveto
          528 89 callgsubr
        </CharString>
        <CharString name="Dlinebelow">
          1705 33 callsubr
          -760 -1108 -54 callsubr
        </CharString>
        <CharString name="Dzecyrillic">
          1368 637 -33 120 callsubr
          endchar
        </CharString>
        <CharString name="Dzhecyrillic">
          1786 1568 1190 rmoveto
          88 115 callsubr
          -732 36 callsubr
          -1043 -502 1043 vlineto
          83 18 18 129 19 vhcurveto
          127 -86 callsubr
          -85 callsubr
          -106 callsubr
          579 vlineto
          117 25 -28 -284 52 hvcurveto
          125 hlineto
          284 53 25 28 116 hhcurveto
          580 127 hlineto
          -80 callgsubr
        </CharString>
        <CharString name="E">
          1410 1292 1444 -94 callsubr
        </CharString>
        <CharString name="Eacute">
          1410 726 -96 callsubr
          -87 callsubr
          724 -111 -94 callsubr
        </CharString>
        <CharString name="Ebreve">
          1410 740 200 callsubr
          552 -126 -94 callsubr
        </CharString>
        <CharString name="Ecaron">
          1410 970 -57 callsubr
          88 callsubr
          166 -432 -94 callsubr
        </CharString>
        <CharString name="Ecedilla">
          1410 702 -30 callsubr
          -74 callsubr
          85 87 508 0 -43 callsubr
          -9 415 rlineto
          -1235 -103 callsubr
          -95 callsubr
          -106 callsubr
          615 -18 callgsubr
          7 callgsubr
        </CharString>
        <CharString name="Ecedillabreve">
          1410 740 200 callsubr
          -38 -2063 rmoveto
          -34 callsubr
          -74 callsubr
          85 87 508 0 -43 callsubr
          -9 415 rlineto
          -1235 -103 callsubr
          -95 callsubr
          -106 callsubr
          615 -18 callgsubr
          7 callgsubr
        </CharString>
        <CharString name="Ecircumflex">
          1410 547 1555 rmoveto
          213 50 callsubr
          -7 callsubr
          900 -111 -94 callsubr
        </CharString>
        <CharString name="Ecircumflexacute">
          1410 1107 1873 rmoveto
          178 vlineto
          47 callsubr
          1 -295 -26 callsubr
          917 -156 -94 callsubr
        </CharString>
        <CharString name="Ecircumflexbelow">
          1410 1292 1444 rmoveto
          -1235 -103 callsubr
          -95 callsubr
          42 callsubr
          -43 callsubr
          -772 -1508 80 callsubr
          -91 callgsubr
        </CharString>
        <CharString name="Ecircumflexdotbelow">
          1410 547 1555 rmoveto
          213 50 callsubr
          -7 callsubr
          900 -111 rmoveto
          -1235 -103 callsubr
          -95 callsubr
          42 callsubr
          -43 callsubr
          -558 -1163 51 callsubr
          -6 callsubr
        </CharString>
        <CharString name="Ecircumflexgrave">
          1410 373 157 callsubr
          2 -557 -26 callsubr
          917 -156 -94 callsubr
        </CharString>
        <CharString name="Ecircumflexhookabove">
          1410 1044 194 callsubr
          -39 -25 -96 189 callsubr
          917 -156 -94 callsubr
        </CharString>
        <CharString name="Ecircumflextilde">
          1410 888 1813 -62 callsubr
          40 callsubr
          7 12 72 callsubr
          -44 callgsubr
          51 51 -42 callgsubr
          917 -156 -94 callsubr
        </CharString>
        <CharString name="Ecyrillic">
          1517 89 714 -14 callsubr
          -221 -143 219 300 -22 hvcurveto
          532 -7 0 171 -533 -7 rlineto
          297 19 136 195 232 hhcurveto
          30 callgsubr
        </CharString>
        <CharString name="Edblgrave">
          1410 575 148 callsubr
          67 callgsubr
          259 -111 -94 callsubr
        </CharString>
        <CharString name="Edieresis">
          1410 545 75 callsubr
          81 callsubr
          107 callsubr
          356 -122 -94 callsubr
        </CharString>
        <CharString name="Edotaccent">
          1410 740 -13 callsubr
          552 -111 -94 callsubr
        </CharString>
        <CharString name="Edotbelow">
          1410 1292 1444 rmoveto
          -1235 -103 callsubr
          -95 callsubr
          42 callsubr
          -43 callsubr
          -558 -1163 51 callsubr
          -6 callsubr
        </CharString>
        <CharString name="Efcyrillic">
          2108 61 714 rmoveto
          -279 248 -179 548 -14 vhcurveto
          -6 vlineto
          -97 -21 -25 -149 -20 vhcurveto
          -127 735 127 vlineto
          -149 20 -22 25 97 vvcurveto
          6 vlineto
          549 14 248 177 292 vvcurveto
          277 -232 186 -565 14 vhcurveto
          6 vlineto
          97 22 25 149 20 vhcurveto
          127 -735 -127 vlineto
          149 -20 21 -25 -97 vvcurveto
          -6 vlineto
          -565 -14 -231 -183 -291 vvcurveto
          1542 5 rmoveto
          -172 -111 -132 -241 -22 vhcurveto
          658 vlineto
          259 -21 93 -136 -175 vvcurveto
          -1097 6 rmoveto
          171 104 134 247 21 vhcurveto
          -658 vlineto
          -253 21 -98 136 175 vvcurveto
          endchar
        </CharString>
        <CharString name="Egrave">
          1410 790 149 callsubr
          885 -420 -94 callsubr
        </CharString>
        <CharString name="Ehookabove">
          1410 781 -67 callgsubr
          51 -8 callsubr
          -34 callgsubr
          -90 63 -131 vhcurveto
          511 -477 -94 callsubr
        </CharString>
        <CharString name="Einvertedbreve">
          1410 740 26 callsubr
          60 callgsubr
          552 -473 -94 callsubr
        </CharString>
        <CharString name="Elcyrillic">
          1632 36 callgsubr
          395 -1036 hlineto
          -91 -20 -18 -140 -18 vhcurveto
          -127 743 127 vlineto
          -140 18 -20 18 91 vvcurveto
          -60 callsubr
          140 18 vhcurveto
          127 -1338 -9 callgsubr
          endchar
        </CharString>
        <CharString name="Emacron">
          1410 404 -69 callsubr
          888 -338 -94 callsubr
        </CharString>
        <CharString name="Emacronacute">
          1410 1107 -24 callsubr
          47 callsubr
          -1 -224 rmoveto
          10 callsubr
          919 -285 -94 callsubr
        </CharString>
        <CharString name="Emacrongrave">
          1410 373 -10 callsubr
          -486 vmoveto
          10 callsubr
          919 -285 -94 callsubr
        </CharString>
        <CharString name="Emcyrillic">
          1998 722 1444 59 callsubr
        </CharString>
        <CharString name="Encyrillic">
          16 callsubr
          -60 callsubr
          -77 callsubr
          -64 callsubr
          -86 callsubr
          -61 callsubr
          -63 callsubr
          4 callsubr
        </CharString>
        <CharString name="Eogonek">
          1410 1096 -84 callgsubr
          35 callgsubr
          152 hlineto
          -43 callsubr
          -9 415 rlineto
          -1235 -103 callsubr
          -95 callsubr
          -106 callsubr
          969 81 callgsubr
        </CharString>
        <CharString name="Epsilongreek">
          1410 1292 1444 -94 callsubr
        </CharString>
        <CharString name="Epsilontonosgreek">
          1833 1714 1444 rmoveto
          -1234 -103 callsubr
          18 -22 callsubr
          -18 -20 42 callsubr
          10 465 rlineto
          -121 hlineto
          -63 -274 -48 -28 -242 -9 -233 -9 rcurveline
          518 171 vlineto
          71 23 -25 -167 30 hvcurveto
          113 530 -113 hlineto
          -166 -31 -23 -26 -70 hhcurveto
          -171 490 hlineto
          207 -7 229 -9 46 -33 57 -221 rlinecurve
          121 hlineto
          -1552 3 -38 callgsubr
          endchar
        </CharString>
        <CharString name="Ercyrillic">
          1554 1477 1000 55 callsubr
        </CharString>
        <CharString name="Ereversedcyrillic">
          1519 116 82 rmoveto
          -67 101 204 -48 198 hhcurveto
          460 351 296 471 474 -331 269 -480 -213 -185 -44 -65 -100 hvcurveto
          -9 -363 rlineto
          121 hlineto
          231 53 117 70 162 hhcurveto
          225 145 -183 -308 25 hvcurveto
          -535 6 0 -171 537 6 rlineto
          -308 -17 -155 -210 -225 hhcurveto
          -162 -121 67 240 -54 hvcurveto
          -120 hlineto
          endchar
        </CharString>
        <CharString name="Escyrillic">
          1493 89 714 -14 callsubr
          -42 callsubr
        </CharString>
        <CharString name="Etagreek">
          16 callsubr
          -60 callsubr
          -77 callsubr
          -64 callsubr
          -86 callsubr
          -61 callsubr
          -63 callsubr
          4 callsubr
        </CharString>
        <CharString name="Etatonosgreek">
          2220 1064 247 rmoveto
          411 514 -411 156 callsubr
          -19 18 91 vvcurveto
          936 vlineto
          91 19 18 -77 callsubr
          -64 callsubr
          -731 -127 vlineto
          142 -19 18 -22 callsubr
          -19 -19 -141 -20 -107 callgsubr
          -129 18 -18 19 83 vvcurveto
          -892 785 -38 callgsubr
          endchar
        </CharString>
        <CharString name="Etilde">
          1410 885 1544 rmoveto
          126 93 96 253 hvcurveto
          -145 hlineto
          -92 -2 -17 -36 -44 hhcurveto
          -28 -24 13 24 -35 hvcurveto
          -32 22 rlineto
          41 -69 callgsubr
          43 callgsubr
          407 -100 -94 callsubr
        </CharString>
        <CharString name="Etildebelow">
          1410 1292 1444 rmoveto
          -1235 -103 callsubr
          -95 callsubr
          42 callsubr
          -43 callsubr
          -419 -1487 191 callsubr
        </CharString>
        <CharString name="F">
          1329 1275 1444 rmoveto
          -1218 -103 callsubr
          -95 callsubr
          -106 callsubr
          -37 callsubr
          239 callsubr
        </CharString>
        <CharString name="Fdotaccent">
          1329 741 -38 callsubr
          109 callsubr
          534 -111 rmoveto
          -1218 -103 callsubr
          -95 callsubr
          -106 callsubr
          -37 callsubr
          239 callsubr
        </CharString>
        <CharString name="G">
          1641 89 714 -21 callsubr
        </CharString>
        <CharString name="Gacute">
          1641 863 -96 callsubr
          -87 callsubr
          -616 -841 -21 callsubr
        </CharString>
        <CharString name="Gammagreek">
          1311 1255 1444 rmoveto
          -1198 -103 callsubr
          -95 callsubr
          -106 callsubr
          -37 callsubr
          201 callsubr
        </CharString>
        <CharString name="Gbreve">
          1641 877 84 callsubr
          -1 22 -4 -99 callgsubr
          -123 -84 60 82 vhcurveto
          3 -142 vlineto
          -3 -17 -2 -21 -22 vvcurveto
          -156 129 -131 225 vhcurveto
          -788 -856 -21 callsubr
        </CharString>
        <CharString name="Gcaron">
          1641 1107 -57 callsubr
          31 callsubr
          -1174 -1162 -21 callsubr
        </CharString>
        <CharString name="Gcircumflex">
          1641 684 102 callsubr
          158 0 -217 321 113 callsubr
          -439 -841 -21 callsubr
        </CharString>
        <CharString name="Gcommaaccent">
          1641 89 714 rmoveto
          -454 351 -293 460 227 219 51 76 125 vhcurveto
          389 vlineto
          82 15 20 128 16 vhcurveto
          126 -665 -126 vlineto
          142 -15 17 -20 -81 vvcurveto
          -308 vlineto
          -25 -33 -57 -14 -68 hhcurveto
          -244 -150 260 341 339 137 228 249 172 114 -94 -230 57 hvcurveto
          120 hlineto
          -8 391 rlineto
          66 -97 -186 38 -214 hhcurveto
          -478 -333 -294 -469 hvcurveto
          762 -1207 -55 callsubr
          69 callsubr
          -43 -23 -69 -70 callgsubr
        </CharString>
        <CharString name="Gdotaccent">
          1641 877 -38 callsubr
          109 callsubr
          -788 -841 -21 callsubr
        </CharString>
        <CharString name="Geacutecyrillic">
          1311 653 -96 callsubr
          -87 callsubr
          760 -111 rmoveto
          -1198 -103 callsubr
          -95 callsubr
          -106 callsubr
          -37 callsubr
          201 callsubr
        </CharString>
        <CharString name="Gecyrillic">
          1311 1255 1444 rmoveto
          -1198 -103 callsubr
          -95 callsubr
          -106 callsubr
          -37 callsubr
          201 callsubr
        </CharString>
        <CharString name="Germandbls">
          1707 641 hmoveto
          1299 vlineto
          175 -6 rlineto
          249 -9 98 -92 -124 vvcurveto
          -119 -89 -67 -127 -13 vhcurveto
          -251 vlineto
          196 -45 117 -113 -154 vvcurveto
          -105 -59 -61 -92 -116 -82 106 180 -27 vhcurveto
          -120 -359 hlineto
          -54 71 132 -43 168 hhcurveto
          242 254 128 293 221 -131 180 -191 69 hvcurveto
          153 22 109 97 133 vvcurveto
          197 -190 134 -435 vhcurveto
          -889 -103 callsubr
          18 -22 callsubr
          -18 -20 -106 callsubr
          vlineto
          endchar
        </CharString>
        <CharString name="Geupturncyrillic">
          1280 1225 1290 rmoveto
          8 466 rlineto
          -126 hlineto
          -284 -90 -41 -28 -199 hhcurveto
          -720 -103 callsubr
          -95 callsubr
          -106 callsubr
          -37 callsubr
          1021 vlineto
          endchar
        </CharString>
        <CharString name="Gmacron">
          1641 541 -69 callsubr
          -452 -1068 -21 callsubr
        </CharString>
        <CharString name="H">
          16 callsubr
          -60 callsubr
          -77 callsubr
          -64 callsubr
          -86 callsubr
          -61 callsubr
          -63 callsubr
          4 callsubr
        </CharString>
        <CharString name="Hacyrillic">
          1534 295 335 53 callsubr
        </CharString>
        <CharString name="Hardsigncyrillic">
          1774 1710 -74 callgsubr
          1 97 21 26 149 19 rrcurveto
          127 -1004 vlineto
          -9 -408 rlineto
          120 hlineto
          49 225 52 27 197 6 rrcurveto
          -1036 vlineto
          -90 -20 -22 -145 -19 vhcurveto
          -127 821 vlineto
          378 246 callsubr
          -116 -201 -6 vhcurveto
          -88 -3 rlineto
          601 78 vlineto
          182 117 -108 -188 hvcurveto
          endchar
        </CharString>
        <CharString name="Hbar">
          16 callsubr
          742 161 142 -161 52 vlineto
          91 20 18 -77 callsubr
          -59 -514 58 38 callsubr
          -86 callsubr
          -52 -161 -142 161 -742 vlineto
          -88 -19 -19 -63 callsubr
          -130 18 -17 19 83 vvcurveto
          566 vmoveto
          183 514 -183 vlineto
          endchar
        </CharString>
        <CharString name="Hbrevebelow">
          16 callsubr
          -60 callsubr
          -77 callsubr
          -64 callsubr
          -86 callsubr
          -61 callsubr
          -63 callsubr
          -130 18 -17 19 83 vvcurveto
          258 -722 238 callsubr
        </CharString>
        <CharString name="Hcaron">
          1797 1129 1875 rmoveto
          -211 -146 -25 callgsubr
          -643 -1628 rmoveto
          93 callgsubr
          -60 callsubr
          -77 callsubr
          -64 callsubr
          -86 callsubr
          -61 callsubr
          -63 callsubr
          4 callsubr
        </CharString>
        <CharString name="Hcedilla">
          1797 374 -493 rmoveto
          165 145 68 134 136 -121 65 -147 3 hvcurveto
          86 87 rlineto
          287 127 hlineto
          -130 18 -17 19 83 vvcurveto
          93 callgsubr
          -60 callsubr
          -77 callsubr
          -64 callsubr
          -86 callsubr
          -61 callsubr
          -142 -20 vhcurveto
          -127 287 -18 callgsubr
          5 callsubr
          -51 93 callsubr
          96 hhcurveto
          endchar
        </CharString>
        <CharString name="Hcircumflex">
          1797 707 1554 rmoveto
          212 50 callsubr
          -7 callsubr
          91 -1307 rmoveto
          93 callgsubr
          -60 callsubr
          -77 callsubr
          -64 callsubr
          -86 callsubr
          -61 callsubr
          -63 callsubr
          4 callsubr
        </CharString>
        <CharString name="Hdieresis">
          1797 704 1565 rmoveto
          73 callgsubr
          391 hmoveto
          73 callgsubr
          -453 -1318 rmoveto
          93 callgsubr
          -60 callsubr
          -77 callsubr
          -64 callsubr
          -86 callsubr
          -61 callsubr
          -63 callsubr
          4 callsubr
        </CharString>
        <CharString name="Hdotaccent">
          1797 900 1555 rmoveto
          -79 callgsubr
          -94 -76 -66 -94 -94 75 -66 95 hvcurveto
          -258 -1308 rmoveto
          93 callgsubr
          -60 callsubr
          -77 callsubr
          -64 callsubr
          -86 callsubr
          -61 callsubr
          -63 callsubr
          4 callsubr
        </CharString>
        <CharString name="Hdotbelow">
          16 callsubr
          -60 callsubr
          -77 callsubr
          -64 callsubr
          -86 callsubr
          -61 callsubr
          -63 callsubr
          -130 18 -17 19 83 vvcurveto
          258 -381 161 callsubr
        </CharString>
        <CharString name="I">
          860 642 254 -84 callsubr
        </CharString>
        <CharString name="IAcyrillic">
          1551 113 999 rmoveto
          -182 119 -116 150 -43 vhcurveto
          -164 -294 -101 -178 -32 -43 -68 -22 rlinecurve
          -121 429 vlineto
          320 595 rlineto
          137 -348 hlineto
          -83 -17 -18 -129 -19 -107 callgsubr
          -141 19 -20 20 88 vvcurveto
          936 vlineto
          88 20 20 141 19 vhcurveto
          127 -811 vlineto
          -382 -182 -192 -253 hvcurveto
          426 23 rmoveto
          175 97 93 176 6 vhcurveto
          91 3 0 -556 -93 1 rlineto
          -153 -118 99 179 hvcurveto
          endchar
        </CharString>
        <CharString name="IJ">
          1720 642 11 callsubr
          155 callsubr
          -85 callsubr
          -106 callsubr
          87 callsubr
          860 30 rmoveto
          906 101 callsubr
          -745 -48 callsubr
          -892 vlineto
          -311 25 callgsubr
        </CharString>
        <CharString name="IJacute">
          1720 415 -96 callsubr
          -82 callgsubr
          1018 hmoveto
          380 309 rlineto
          12 -87 callsubr
          -475 -1301 rmoveto
          936 12 callsubr
          -85 callsubr
          -106 callsubr
          87 callsubr
          860 30 rmoveto
          906 101 callsubr
          -745 -48 callsubr
          -892 vlineto
          -311 25 callgsubr
        </CharString>
        <CharString name="IUcyrillic">
          2466 642 247 rmoveto
          411 165 vlineto
          -421 29 322 -270 429 hhcurveto
          478 312 326 432 456 -332 296 -450 -442 -301 -280 -384 -42 hvcurveto
          -168 383 hlineto
          83 18 19 129 19 vhcurveto
          127 -86 callsubr
          -85 callsubr
          -106 callsubr
          -49 callsubr
          957 -109 rmoveto
          -206 -121 258 341 333 93 236 219 206 121 -258 -341 -333 -94 -236 -218 hvcurveto
          endchar
        </CharString>
        <CharString name="Iacute">
          860 415 -96 callsubr
          -82 callgsubr
          385 -1301 -84 callsubr
        </CharString>
        <CharString name="Ibreve">
          860 430 84 callsubr
          -2 22 -3 -99 callgsubr
          21 callgsubr
          212 -1316 -84 callsubr
        </CharString>
        <CharString name="Icaron">
          860 660 1 callsubr
          143 callsubr
          -174 -1622 -84 callsubr
        </CharString>
        <CharString name="Icircumflex">
          860 237 -31 callsubr
          -23 callsubr
          103 callsubr
          561 -1301 -84 callsubr
        </CharString>
        <CharString name="Icyrillic">
          860 642 254 -84 callsubr
        </CharString>
        <CharString name="Idblgrave">
          860 265 1876 185 callsubr
          -81 -1301 -84 callsubr
        </CharString>
        <CharString name="Idieresis">
          860 235 29 callsubr
          -33 callsubr
          390 hmoveto
          22 callsubr
          17 -1312 -84 callsubr
        </CharString>
        <CharString name="Idieresisacute">
          860 797 -24 callsubr
          46 callsubr
          183 -260 rmoveto
          -47 callsubr
          -18 28 callsubr
          -47 callsubr
          -3 callsubr
          29 -1294 -84 callsubr
        </CharString>
        <CharString name="Idotaccent">
          860 430 -38 callsubr
          110 callsubr
          212 -1301 -84 callsubr
        </CharString>
        <CharString name="Idotbelow">
          860 642 11 callsubr
          155 callsubr
          -85 callsubr
          -106 callsubr
          87 callsubr
          -208 -388 51 callsubr
          -6 callsubr
        </CharString>
        <CharString name="Iecyrillic">
          1410 1292 1444 -94 callsubr
        </CharString>
        <CharString name="Igrave">
          860 479 82 callgsubr
          546 -1610 -84 callsubr
        </CharString>
        <CharString name="Ihookabove">
          860 470 82 callsubr
          28 52 -8 callsubr
          130 -55 callgsubr
          172 -1667 -84 callsubr
        </CharString>
        <CharString name="Iicyrillic">
          1830 642 247 rmoveto
          19 vlineto
          546 684 rlineto
          -703 156 callsubr
          -19 18 91 vvcurveto
          936 vlineto
          91 19 18 -77 callsubr
          -19 vlineto
          -546 -684 rlineto
          702 38 callsubr
          -86 callsubr
          -85 callsubr
          -106 callsubr
          -49 callsubr
          endchar
        </CharString>
        <CharString name="Iinvertedbreve">
          860 430 26 callsubr
          1 -21 4 187 callsubr
          212 -1663 -84 callsubr
        </CharString>
        <CharString name="Iishortcyrillic">
          1830 915 -61 callgsubr
          -87 -84 -64 callgsubr
          79 callgsubr
          -56 -60 -86 -151 157 -96 224 vhcurveto
          -273 -1310 rmoveto
          19 vlineto
          546 684 rlineto
          -703 156 callsubr
          -19 18 91 vvcurveto
          936 vlineto
          91 19 18 -77 callsubr
          -19 vlineto
          -546 -684 rlineto
          702 38 callsubr
          -86 callsubr
          -85 callsubr
          -106 callsubr
          -49 callsubr
          endchar
        </CharString>
        <CharString name="Imacron">
          860 94 -69 callsubr
          548 -1528 -84 callsubr
        </CharString>
        <CharString name="Iocyrillic">
          1410 545 75 callsubr
          81 callsubr
          107 callsubr
          356 -122 -94 callsubr
        </CharString>
        <CharString name="Iogonek">
          860 436 -84 callgsubr
          35 callgsubr
          276 127 hlineto
          -141 19 -19 20 88 vvcurveto
          936 12 callsubr
          -85 callsubr
          -106 callsubr
          309 81 callgsubr
        </CharString>
        <CharString name="Iotadieresisgreek">
          860 235 29 callsubr
          -33 callsubr
          390 hmoveto
          22 callsubr
          17 -1312 -84 callsubr
        </CharString>
        <CharString name="Iotagreek">
          860 642 254 -84 callsubr
        </CharString>
        <CharString name="Iotatonosgreek">
          1282 1064 11 callsubr
          115 callsubr
          -745 -127 vlineto
          142 -19 18 -22 callsubr
          -18 -20 -106 callsubr
          745 127 vlineto
          -142 19 -19 20 88 vvcurveto
          -892 778 -38 callgsubr
          endchar
        </CharString>
        <CharString name="Itilde">
          860 575 2 callsubr
          -44 hhcurveto
          -28 105 callsubr
          -63 -52 23 callsubr
          43 -68 callgsubr
          67 -1290 -84 callsubr
        </CharString>
        <CharString name="Itildebelow">
          860 642 11 callsubr
          155 callsubr
          -85 callsubr
          -106 callsubr
          87 callsubr
          -69 -712 191 callsubr
        </CharString>
        <CharString name="J">
          860 642 284 rmoveto
          906 12 callsubr
          129 callsubr
        </CharString>
        <CharString name="Jacute">
          860 415 -96 callsubr
          -87 callsubr
          385 -1271 rmoveto
          906 12 callsubr
          129 callsubr
        </CharString>
        <CharString name="Jcircumflex">
          860 237 -31 callsubr
          -23 callsubr
          -7 callsubr
          561 -1271 rmoveto
          906 12 callsubr
          129 callsubr
        </CharString>
        <CharString name="Jecyrillic">
          860 642 284 rmoveto
          906 12 callsubr
          129 callsubr
        </CharString>
        <CharString name="K">
          1590 642 247 14 callsubr
        </CharString>
        <CharString name="Kaacutecyrillic">
          1590 863 -96 callsubr
          -87 callsubr
          -63 -1308 14 callsubr
        </CharString>
        <CharString name="Kacute">
          1590 863 -96 callsubr
          -87 callsubr
          -63 -1308 14 callsubr
        </CharString>
        <CharString name="Kacyrillic">
          1590 642 247 14 callsubr
        </CharString>
        <CharString name="Kappagreek">
          1590 642 247 14 callsubr
        </CharString>
        <CharString name="Kcaron">
          1590 1108 1 callsubr
          -25 callgsubr
          -621 -1629 14 callsubr
        </CharString>
        <CharString name="Kcommaaccent">
          171 callsubr
          204 -740 -55 callsubr
          125 callsubr
        </CharString>
        <CharString name="Kdotbelow">
          171 callsubr
          238 -381 -40 callsubr
        </CharString>
        <CharString name="Klinebelow">
          171 callsubr
          -109 -634 0 callsubr
        </CharString>
        <CharString name="L">
          21 callsubr
          endchar
        </CharString>
        <CharString name="Lacute">
          1308 415 -96 callsubr
          -87 callsubr
          997 -1555 rmoveto
          -11 callsubr
          15 callsubr
          endchar
        </CharString>
        <CharString name="Lambdagreek">
          1598 1389 304 rmoveto
          -409 1140 -362 0 -406 -1125 -55 -151 -30 -27 -118 -14 rlinecurve
          -127 517 127 vlineto
          -154 20 -16 36 46 139 rrcurveto
          272 807 271 -813 45 -138 -27 -31 -145 -20 rlinecurve
          -127 771 127 vlineto
          -108 15 -39 16 -53 146 rrcurveto
          endchar
        </CharString>
        <CharString name="Lcaron">
          1308 1092 1167 rmoveto
          200 427 -282 0 -49 -427 rlineto
          293 -1167 rmoveto
          -11 callsubr
          15 callsubr
          endchar
        </CharString>
        <CharString name="Lcircumflexbelow">
          21 callsubr
          409 -479 rmoveto
          213 175 213 -175 85 callgsubr
        </CharString>
        <CharString name="Lcommaaccent">
          21 callsubr
          588 -493 57 callsubr
        </CharString>
        <CharString name="Ldot">
          21 callsubr
          991 29 callgsubr
          89 -79 110 hvcurveto
          endchar
        </CharString>
        <CharString name="Ldotbelow">
          21 callsubr
          622 -134 -40 callsubr
        </CharString>
        <CharString name="Ldotbelowmacron">
          1308 94 -69 callsubr
          1160 -1782 rmoveto
          -11 callsubr
          15 callsubr
          622 -134 -40 callsubr
        </CharString>
        <CharString name="Ljecyrillic">
          2259 36 callgsubr
          352 -1036 hlineto
          -91 -20 -18 -141 -18 vhcurveto
          -127 818 vlineto
          377 213 195 267 276 -222 166 -378 hvcurveto
          -223 271 -16 callgsubr
          -1307 -9 callgsubr
          1746 303 rmoveto
          -180 -88 -116 -200 -6 vhcurveto
          -89 -3 rlineto
          601 79 vlineto
          181 117 -108 -188 hvcurveto
          endchar
        </CharString>
        <CharString name="Llinebelow">
          21 callsubr
          275 -387 -54 callsubr
        </CharString>
        <CharString name="Lslash">
          1308 57 591 rmoveto
          161 39 rlineto
          -376 vlineto
          -88 -19 -19 -142 -20 vhcurveto
          -127 1197 vlineto
          -11 callsubr
          rrcurveto
          -157 -6 0 587 319 77 0 152 -319 -77 rlineto
          305 vlineto
          88 21 19 150 21 -20 callgsubr
          -408 vlineto
          -161 -38 rlineto
          endchar
        </CharString>
        <CharString name="M">
          1998 722 1444 59 callsubr
        </CharString>
        <CharString name="Macute">
          1998 987 -96 callsubr
          -82 callgsubr
          -107 -111 59 callsubr
        </CharString>
        <CharString name="Mdotaccent">
          1998 1002 64 callgsubr
          76 -67 94 hvcurveto
          -280 -111 59 callsubr
        </CharString>
        <CharString name="Mdotbelow">
          1998 722 1444 rmoveto
          -662 -127 hlineto
          129 -17 21 -27 -3 -108 rrcurveto
          -19 -912 -2 -90 -16 -18 -128 -18 rlinecurve
          -127 482 127 vlineto
          -129 18 -18 19 221 callsubr
          -134 -664 51 callsubr
          -6 callsubr
        </CharString>
        <CharString name="Mugreek">
          1998 722 1444 59 callsubr
        </CharString>
        <CharString name="N">
          1626 -35 callsubr
          -15 callsubr
          endchar
        </CharString>
        <CharString name="Nacute">
          1626 837 -96 callsubr
          -81 callgsubr
          -20 -111 -19 callsubr
          -15 callsubr
          endchar
        </CharString>
        <CharString name="Ncaron">
          1626 1082 1 callsubr
          143 callsubr
          -578 -432 -19 callsubr
          -15 callsubr
          endchar
        </CharString>
        <CharString name="Ncircumflexbelow">
          1626 -35 callsubr
          -15 callsubr
          -708 -846 80 callsubr
          -277 0 -224 -371 rlineto
          endchar
        </CharString>
        <CharString name="Ncommaaccent">
          1626 -35 callsubr
          -15 callsubr
          -528 -860 -55 callsubr
          69 callsubr
          -42 -23 -70 -70 callgsubr
        </CharString>
        <CharString name="Ndotaccent">
          1626 852 -38 callsubr
          110 callsubr
          -192 -111 -19 callsubr
          -15 callsubr
          endchar
        </CharString>
        <CharString name="Ndotbelow">
          1626 -35 callsubr
          -15 callsubr
          -494 -501 -5 callsubr
        </CharString>
        <CharString name="Ngrave">
          1626 901 150 callsubr
          141 -420 -19 callsubr
          -15 callsubr
          endchar
        </CharString>
        <CharString name="Njecyrillic">
          2426 642 247 rmoveto
          451 473 -451 vlineto
          -83 -18 -18 -128 -19 vhcurveto
          -127 805 vlineto
          377 211 186 254 257 -220 156 -378 hvcurveto
          -225 322 hlineto
          97 22 26 149 19 vhcurveto
          127 -741 -127 vlineto
          128 -19 18 -19 -83 vvcurveto
          -343 -473 343 38 callsubr
          -86 callsubr
          -85 callsubr
          -106 callsubr
          -49 callsubr
          1275 183 rmoveto
          -166 -88 -106 -198 -6 vhcurveto
          -92 -3 rlineto
          549 81 vlineto
          180 117 -97 -171 hvcurveto
          endchar
        </CharString>
        <CharString name="Nlinebelow">
          1626 -35 callsubr
          -15 callsubr
          -841 -754 -54 callsubr
        </CharString>
        <CharString name="Ntilde">
          1626 997 2 callsubr
          -44 hhcurveto
          -28 105 callsubr
          -63 -52 23 callsubr
          43 hhcurveto
          29 -58 callgsubr
          -337 -100 -19 callsubr
          -15 callsubr
          endchar
        </CharString>
        <CharString name="Nugreek">
          1626 -35 callsubr
          -15 callsubr
          endchar
        </CharString>
        <CharString name="O">
          6 callsubr
          77 callsubr
          -102 callsubr
        </CharString>
        <CharString name="OE">
          2212 89 716 rmoveto
          -425 324 -324 456 vhcurveto
          162 111 33 138 hhcurveto
          861 hlineto
          -52 callsubr
          -64 -274 -43 -30 -232 -8 -212 -8 rcurveline
          518 163 vlineto
          71 22 -25 -169 30 hvcurveto
          114 533 -114 hlineto
          -167 -31 -22 -26 -70 hhcurveto
          -163 490 hlineto
          191 -7 228 -8 44 -34 57 -219 rlinecurve
          121 hlineto
          -9 413 rlineto
          -820 hlineto
          -129 -95 33 -167 hhcurveto
          -498 -314 -321 -440 hvcurveto
          447 2 rmoveto
          339 160 250 259 37 34 -5 -10 30 vhcurveto
          -1140 vlineto
          -10 -35 -40 -5 -43 hhcurveto
          -249 -153 245 336 hvcurveto
          endchar
        </CharString>
        <CharString name="Oacute">
          1766 869 -96 callsubr
          -87 callsubr
          -622 -836 -105 callsubr
          -102 callsubr
        </CharString>
        <CharString name="Obreve">
          1766 883 200 callsubr
          -794 -851 -105 callsubr
          -102 callsubr
        </CharString>
        <CharString name="Ocaron">
          1766 1113 -57 callsubr
          88 callsubr
          -1180 -1157 -105 callsubr
          -102 callsubr
        </CharString>
        <CharString name="Ocircumflex">
          1766 690 1555 rmoveto
          213 50 callsubr
          -7 callsubr
          -446 -836 -105 callsubr
          -102 callsubr
        </CharString>
        <CharString name="Ocircumflexacute">
          1766 1250 1873 rmoveto
          178 vlineto
          47 callsubr
          1 -295 -26 callsubr
          -429 -881 -105 callsubr
          -102 callsubr
        </CharString>
        <CharString name="Ocircumflexdotbelow">
          1766 690 1555 rmoveto
          213 50 callsubr
          -7 callsubr
          -446 -836 -105 callsubr
          453 -337 299 -457 -83 callgsubr
          vhcurveto
          -101 callgsubr
          70 callsubr
          329 -871 161 callsubr
        </CharString>
        <CharString name="Ocircumflexgrave">
          1766 516 157 callsubr
          2 -557 -26 callsubr
          -429 -881 -105 callsubr
          -102 callsubr
        </CharString>
        <CharString name="Ocircumflexhookabove">
          1766 1187 194 callsubr
          -39 -25 -96 189 callsubr
          -429 -881 -105 callsubr
          -102 callsubr
        </CharString>
        <CharString name="Ocircumflextilde">
          1766 1031 1813 -62 callsubr
          40 callsubr
          7 12 72 callsubr
          -44 callgsubr
          51 51 -42 callgsubr
          -429 -881 -105 callsubr
          -102 callsubr
        </CharString>
        <CharString name="Ocyrillic">
          6 callsubr
          77 callsubr
          -102 callsubr
        </CharString>
        <CharString name="Odblgrave">
          1766 718 148 callsubr
          67 callgsubr
          -1087 -836 -105 callsubr
          -102 callsubr
        </CharString>
        <CharString name="Odieresis">
          1766 688 75 callsubr
          81 callsubr
          107 callsubr
          -990 -847 -105 callsubr
          -102 callsubr
        </CharString>
        <CharString name="Odieresismacron">
          1766 516 1867 -106 callgsubr
          184 -463 rmoveto
          -47 callsubr
          -98 callgsubr
          186 callsubr
          -977 -829 -105 callsubr
          -102 callsubr
        </CharString>
        <CharString name="Odotaccent">
          1766 883 -13 callsubr
          -794 -836 -105 callsubr
          -102 callsubr
        </CharString>
        <CharString name="Odotaccentmacron">
          1766 516 1838 rmoveto
          10 callsubr
          367 -449 rmoveto
          78 63 52 70 71 -63 50 -78 -77 -63 -50 -71 -70 62 -52 78 hvcurveto
          -794 -815 -105 callsubr
          -102 callsubr
        </CharString>
        <CharString name="Odotbelow">
          6 callsubr
          77 callsubr
          453 -337 299 -457 -83 callgsubr
          vhcurveto
          -101 callgsubr
          70 callsubr
          329 -871 161 callsubr
        </CharString>
        <CharString name="Ograve">
          1766 933 149 callsubr
          -461 -1145 -105 callsubr
          -102 callsubr
        </CharString>
        <CharString name="Ohookabove">
          1766 924 -67 callgsubr
          51 -8 callsubr
          -34 callgsubr
          -90 63 -131 vhcurveto
          -835 -1202 -105 callsubr
          -102 callsubr
        </CharString>
        <CharString name="Ohorn">
          1816 89 719 -105 callsubr
          56 callsubr
        </CharString>
        <CharString name="Ohornacute">
          1816 877 1555 rmoveto
          379 309 rlineto
          12 -81 callgsubr
          -630 -836 -105 callsubr
          56 callsubr
        </CharString>
        <CharString name="Ohorndotbelow">
          1816 89 719 -105 callsubr
          271 -130 230 -195 125 vhcurveto
          -6 34 37 -4 38 hhcurveto
          173 119 68 139 1 hvcurveto
          1 113 -90 108 -112 60 rrcurveto
          -125 hlineto
          24 -31 16 -63 -55 vvcurveto
          -127 -2 -67 -102 -146 -107 -117 26 -146 -40 callgsubr
          70 callsubr
          326 -871 rmoveto
          116 callsubr
          -22 callgsubr
        </CharString>
        <CharString name="Ohorngrave">
          1816 940 150 callsubr
          -469 -1145 -105 callsubr
          56 callsubr
        </CharString>
        <CharString name="Ohornhookabove">
          1816 931 82 callsubr
          29 51 -8 callsubr
          -34 callgsubr
          -91 63 -131 vhcurveto
          -842 -1202 -105 callsubr
          56 callsubr
        </CharString>
        <CharString name="Ohorntilde">
          1816 1036 2 callsubr
          -76 callgsubr
          -62 -53 23 callsubr
          44 hhcurveto
          28 23 -14 -23 36 -21 callgsubr
          -947 -825 -105 callsubr
          56 callsubr
        </CharString>
        <CharString name="Ohungarumlaut">
          1766 660 1876 rmoveto
          -24 -321 163 0 169 309 rlineto
          12 vlineto
          125 hmoveto
          -148 -321 182 0 309 309 rlineto
          12 vlineto
          -1347 -1157 -105 callsubr
          -102 callsubr
        </CharString>
        <CharString name="Oinvertedbreve">
          1766 883 26 callsubr
          60 callgsubr
          -794 -1198 -105 callsubr
          -102 callsubr
        </CharString>
        <CharString name="Omacron">
          1766 547 -69 callsubr
          -458 -1063 -105 callsubr
          -102 callsubr
        </CharString>
        <CharString name="Omacronacute">
          1766 1250 -24 callsubr
          47 callsubr
          -1 -224 rmoveto
          10 callsubr
          -427 -1010 -105 callsubr
          -102 callsubr
        </CharString>
        <CharString name="Omacrongrave">
          1766 516 -10 callsubr
          -486 vmoveto
          10 callsubr
          -427 -1010 -105 callsubr
          -102 callsubr
        </CharString>
        <CharString name="Omegagreek">
          1634 79 hmoveto
          655 12 callgsubr
          -100 -135 -160 -63 vhcurveto
          -403 653 vlineto
          49 417 rlineto
          -101 231 callsubr
          -102 hlineto
          endchar
        </CharString>
        <CharString name="Omegatonosgreek">
          1902 348 hmoveto
          654 12 callgsubr
          -99 -135 -160 -63 vhcurveto
          -403 652 vlineto
          50 417 rlineto
          -102 231 callsubr
          -101 hlineto
          -126 615 -38 callgsubr
          endchar
        </CharString>
        <CharString name="Omicrongreek">
          6 callsubr
          77 callsubr
          -102 callsubr
        </CharString>
        <CharString name="Omicrontonosgreek">
          1959 281 719 rmoveto
          -453 337 -299 457 481 315 328 430 453 -337 299 -457 -481 -315 -328 -430 vhcurveto
          -109 313 -38 callgsubr
          748 -295 rmoveto
          330 97 239 226 209 123 -260 -339 -330 -96 -239 -226 -209 -124 260 339 vhcurveto
          endchar
        </CharString>
        <CharString name="Oogonek">
          6 callsubr
          227 callsubr
        </CharString>
        <CharString name="Oogonekmacron">
          1766 547 -69 callsubr
          -458 -1063 rmoveto
          227 callsubr
        </CharString>
        <CharString name="Oslash">
          6 callsubr
          206 callsubr
        </CharString>
        <CharString name="Oslashacute">
          1766 869 -96 callsubr
          -87 callsubr
          -622 -836 rmoveto
          206 callsubr
        </CharString>
        <CharString name="Otilde">
          1766 1028 1544 rmoveto
          126 93 96 253 hvcurveto
          -145 hlineto
          -92 -2 -17 -36 -44 hhcurveto
          -28 -24 13 24 -35 hvcurveto
          -32 22 rlineto
          41 -69 callgsubr
          43 callgsubr
          -939 -825 -105 callsubr
          -102 callsubr
        </CharString>
        <CharString name="Otildeacute">
          1766 1250 -24 callsubr
          47 callsubr
          514 -258 -62 callsubr
          40 callsubr
          8 11 72 callsubr
          21 45 27 30 -7 -12 37 vhcurveto
          41 -12 rlineto
          -16 51 51 -13 58 hhcurveto
          -942 -831 -105 callsubr
          -102 callsubr
        </CharString>
        <CharString name="Otildedieresis">
          1766 700 1830 rmoveto
          -47 callsubr
          -98 callgsubr
          186 callsubr
          -35 -280 -62 callsubr
          40 callsubr
          8 11 72 callsubr
          21 45 27 30 -7 -12 37 vhcurveto
          41 -12 rlineto
          -16 51 51 -13 58 hhcurveto
          -942 -831 -105 callsubr
          -102 callsubr
        </CharString>
        <CharString name="Otildemacron">
          1766 516 1866 -106 callgsubr
          515 -460 -62 callsubr
          40 callsubr
          8 11 72 callsubr
          21 45 27 30 -7 -12 37 vhcurveto
          41 -12 rlineto
          -16 51 51 -13 58 hhcurveto
          -942 -831 -105 callsubr
          -102 callsubr
        </CharString>
        <CharString name="P">
          1554 1477 1000 55 callsubr
        </CharString>
        <CharString name="Pacute">
          1554 761 -96 callsubr
          -87 callsubr
          874 -555 55 callsubr
        </CharString>
        <CharString name="Pdotaccent">
          1554 776 64 callgsubr
          76 -67 94 hvcurveto
          701 -555 55 callsubr
        </CharString>
        <CharString name="Pecyrillic">
          1786 1568 11 callsubr
          115 callsubr
          -1672 -48 callsubr
          -85 callsubr
          -106 callsubr
          -49 callsubr
          1043 502 -1043 vlineto
          -83 -18 -18 -129 -19 vhcurveto
          -127 732 127 vlineto
          -80 callgsubr
        </CharString>
        <CharString name="Phigreek">
          2010 66 716 rmoveto
          -316 270 -160 470 -13 vhcurveto
          -8 -63 -36 -21 -124 -16 rrcurveto
          -127 735 127 vlineto
          -125 16 -35 21 -9 63 rrcurveto
          463 13 277 164 314 vvcurveto
          322 -298 157 -443 13 vhcurveto
          7 69 34 21 129 17 rrcurveto
          127 -735 -127 vlineto
          129 -17 33 -21 7 -69 rrcurveto
          -436 -13 -305 -160 -321 vvcurveto
          1452 6 rmoveto
          -218 -130 -110 -186 -19 vhcurveto
          688 vlineto
          201 -18 115 -113 -210 vvcurveto
          -1026 2 rmoveto
          206 122 114 194 19 vhcurveto
          -688 vlineto
          -188 19 -128 109 221 vvcurveto
          endchar
        </CharString>
        <CharString name="Pigreek">
          1757 1539 11 callsubr
          115 callsubr
          -1643 -48 callsubr
          -85 callsubr
          -106 callsubr
          -49 callsubr
          1043 474 -1043 vlineto
          -83 -19 -18 -128 -19 -107 callgsubr
          -80 callgsubr
        </CharString>
        <CharString name="Psigreek">
          1957 1175 269 rmoveto
          191 vlineto
          360 22 163 140 55 345 rrcurveto
          29 184 19 116 30 31 99 7 rlinecurve
          127 vlineto
          5 -37 -72 7 -63 hhcurveto
          -196 -90 -71 -217 -35 hvcurveto
          -30 -187 -35 -218 -49 -102 -148 -29 rlinecurve
          576 vlineto
          86 19 18 128 17 vhcurveto
          127 -687 -127 vlineto
          128 -17 19 -18 -86 vvcurveto
          -576 vlineto
          -148 30 -49 101 -35 218 -31 187 rcurveline
          217 -35 -90 71 -195 hhcurveto
          -63 -73 -7 -5 -37 hvcurveto
          -127 vlineto
          100 -7 30 -31 18 -116 rrcurveto
          29 -184 56 -345 163 -140 360 -22 rlinecurve
          -191 -1 callsubr
          735 -67 callsubr
          endchar
        </CharString>
        <CharString name="Q">
          6 callsubr
          -409 272 -283 388 -51 vhcurveto
          176 -171 rlineto
          -164 174 112 -43 169 hhcurveto
          120 124 23 44 94 hvcurveto
          117 vlineto
          -126 -8 -100 47 -179 151 -76 65 rcurveline
          275 119 166 258 311 vvcurveto
          453 -335 299 -456 -483 -315 -328 -430 vhcurveto
          467 18 rmoveto
          330 95 239 224 211 125 -260 -339 -1 vhcurveto
          -330 -95 -239 -224 -211 -124 260 339 vhcurveto
          endchar
        </CharString>
        <CharString name="R">
          1553 1453 1044 17 callsubr
        </CharString>
        <CharString name="Racute">
          1553 739 -96 callsubr
          -87 callsubr
          872 -511 17 callsubr
        </CharString>
        <CharString name="Rcaron">
          1553 983 -57 callsubr
          31 callsubr
          314 -832 17 callsubr
        </CharString>
        <CharString name="Rcommaaccent">
          179 callsubr
          -209 -1513 -55 callsubr
          69 callsubr
          -42 -23 -70 -70 callgsubr
        </CharString>
        <CharString name="Rdblgrave">
          1553 588 148 callsubr
          68 callgsubr
          407 -511 17 callsubr
        </CharString>
        <CharString name="Rdotaccent">
          1553 753 -13 callsubr
          700 -511 17 callsubr
        </CharString>
        <CharString name="Rdotbelow">
          179 callsubr
          -175 -1154 -5 callsubr
        </CharString>
        <CharString name="Rdotbelowmacron">
          1553 417 -69 callsubr
          1036 -738 rmoveto
          242 -2 -195 158 -423 hhcurveto
          -776 -103 callsubr
          -95 callsubr
          -106 callsubr
          -49 callsubr
          172 callsubr
          -175 -1154 -5 callsubr
        </CharString>
        <CharString name="Rhogreek">
          1554 1477 1000 55 callsubr
        </CharString>
        <CharString name="Rinvertedbreve">
          1553 753 26 callsubr
          190 callsubr
          1 -43 callgsubr
          700 -873 17 callsubr
        </CharString>
        <CharString name="Rlinebelow">
          179 callsubr
          -522 -1407 -54 callsubr
        </CharString>
        <CharString name="S">
          1368 637 -33 120 callsubr
          endchar
        </CharString>
        <CharString name="Sacute">
          1368 710 -96 callsubr
          -87 callsubr
          85 -1588 120 callsubr
          endchar
        </CharString>
        <CharString name="Sacutedotaccent">
          1368 725 1783 rmoveto
          77 63 51 70 71 -63 50 -77 -78 -63 -50 -71 -70 63 -51 78 hvcurveto
          366 -164 rmoveto
          177 vlineto
          47 callsubr
          279 -1567 120 callsubr
          endchar
        </CharString>
        <CharString name="Scaron">
          1368 954 -57 callsubr
          88 callsubr
          -473 -1909 120 callsubr
          endchar
        </CharString>
        <CharString name="Scarondotaccent">
          1368 725 1806 rmoveto
          77 63 50 71 71 -63 50 -77 -78 -63 -50 -71 -71 63 102 callgsubr
          333 -152 83 0 333 152 rlineto
          -463 -1730 120 callsubr
          endchar
        </CharString>
        <CharString name="Scedilla">
          1368 628 -30 callsubr
          -74 callsubr
          56 58 rlineto
          311 25 243 156 286 vvcurveto
          220 -128 149 -287 87 vhcurveto
          -131 39 rlineto
          -144 44 -73 56 96 vvcurveto
          103 78 74 153 178 123 -102 -199 43 vhcurveto
          120 hlineto
          -9 363 rlineto
          233 callsubr
          94 -60 176 -47 190 -9 -87 -96 rcurveline
          -97 vlineto
          2 9 18 2 14 hhcurveto
          71 44 -23 -46 -45 -45 -22 -62 -54 -52 -57 callgsubr
        </CharString>
        <CharString name="Schwa">
          1575 728 -33 rmoveto
          456 303 286 457 495 -310 271 -481 -225 -207 -39 -64 -99 hvcurveto
          -9 -391 rlineto
          121 hlineto
          221 60 119 102 201 hhcurveto
          238 132 -193 -385 8 hvcurveto
          -961 hlineto
          -6 -34 -6 -51 -47 vvcurveto
          -375 233 -253 433 vhcurveto
          -266 590 rmoveto
          7 0 8 7 vvcurveto
          570 hlineto
          -21 -301 -110 -139 -168 -1 rrcurveto
          -193 -78 180 239 hvcurveto
          endchar
        </CharString>
        <CharString name="Scircumflex">
          1368 532 -31 callsubr
          -23 callsubr
          -7 callsubr
          261 -1588 120 callsubr
          endchar
        </CharString>
        <CharString name="Scommaaccent">
          1368 637 -33 120 callsubr
          -2 -460 -55 callsubr
          65 callgsubr
          57 -1 44 -20 -39 vvcurveto
          -39 -42 -23 -69 -56 103 callgsubr
        </CharString>
        <CharString name="Sdotaccent">
          1368 725 -93 callgsubr
          -88 -1588 120 callsubr
          endchar
        </CharString>
        <CharString name="Sdotbelow">
          1368 637 -33 120 callsubr
          32 -101 -5 callsubr
        </CharString>
        <CharString name="Sdotbelowdotaccent">
          1368 725 -93 callgsubr
          -88 -1588 120 callsubr
          32 -101 -5 callsubr
        </CharString>
        <CharString name="Shacyrillic">
          2568 2350 11 callsubr
          115 callsubr
          -732 36 callsubr
          151 callsubr
          -718 36 callsubr
          151 callsubr
          -86 callsubr
          -85 callsubr
          -106 callsubr
          2454 127 vlineto
          -80 callgsubr
        </CharString>
        <CharString name="Shchacyrillic">
          2594 2552 154 rmoveto
          -202 1036 hlineto
          88 115 callsubr
          -732 36 callsubr
          151 callsubr
          -718 36 callsubr
          151 callsubr
          -86 callsubr
          -85 callsubr
          -106 callsubr
          2046 vlineto
          199 42 -28 -284 90 hvcurveto
          126 hlineto
          endchar
        </CharString>
        <CharString name="Sigmagreek">
          1333 1219 1444 rmoveto
          -1176 -121 hlineto
          467 -627 -467 -484 rlineto
          -212 1214 vlineto
          11 555 rlineto
          -142 hlineto
          -239 -55 -58 -35 -236 hhcurveto
          -451 hlineto
          532 500 0 36 -344 482 264 -8 238 -7 35 -44 55 -204 rlinecurve
          122 hlineto
          endchar
        </CharString>
        <CharString name="Softsigncyrillic">
          1528 1465 -74 callgsubr
          97 21 26 150 19 -20 callgsubr
          -85 callsubr
          -106 callsubr
          816 vlineto
          379 246 callsubr
          31 callgsubr
        </CharString>
        <CharString name="T">
          -17 callsubr
          endchar
        </CharString>
        <CharString name="Taugreek">
          -17 callsubr
          endchar
        </CharString>
        <CharString name="Tbar">
          1467 224 669 rmoveto
          298 -401 hlineto
          -97 -22 -25 -149 -20 vhcurveto
          -127 765 127 vlineto
          -149 20 -22 25 97 vvcurveto
          401 298 142 -298 487 vlineto
          42 -1 220 -7 48 -32 47 -229 rlinecurve
          120 hlineto
          -9 415 -1359 0 78 callsubr
          1 rcurveline
          -487 -298 vlineto
          endchar
        </CharString>
        <CharString name="Tcaron">
          1467 963 -57 callsubr
          88 callsubr
          294 -432 rmoveto
          -1359 hlineto
          78 callsubr
          -87 callgsubr
          765 -67 callsubr
          146 callsubr
          endchar
        </CharString>
        <CharString name="Tcedilla">
          1467 692 -30 callsubr
          -121 65 -147 3 hvcurveto
          86 87 rlineto
          295 127 hlineto
          -149 19 -22 26 97 vvcurveto
          146 callsubr
          -9 415 -1359 0 78 callsubr
          -87 callgsubr
          312 vlineto
          -115 -127 -72 callgsubr
          -54 -52 -57 callgsubr
        </CharString>
        <CharString name="Tcircumflexbelow">
          -17 callsubr
          -902 -1508 25 callsubr
        </CharString>
        <CharString name="Tcommaaccent">
          -17 callsubr
          -723 -1522 57 callsubr
        </CharString>
        <CharString name="Tdotaccent">
          1467 733 -13 callsubr
          680 -111 rmoveto
          -1359 hlineto
          78 callsubr
          -87 callgsubr
          765 -67 callsubr
          146 callsubr
          endchar
        </CharString>
        <CharString name="Tdotbelow">
          -17 callsubr
          -689 -1163 -40 callsubr
        </CharString>
        <CharString name="Tecyrillic">
          -17 callsubr
          endchar
        </CharString>
        <CharString name="Thetagreek">
          1780 886 -33 rmoveto
          488 320 328 430 453 -341 299 -459 -488 -320 -328 -430 -453 341 -299 459 hvcurveto
          12 150 rmoveto
          -241 -139 258 362 355 112 235 253 241 139 -257 -363 -358 -113 -232 -252 hvcurveto
          -265 338 rmoveto
          97 hlineto
          141 23 28 22 75 hhcurveto
          66 hlineto
          74 29 -22 -141 23 hvcurveto
          97 508 -97 hlineto
          -140 -23 -29 -23 -74 hhcurveto
          -66 hlineto
          -75 -28 23 140 -23 hvcurveto
          -97 hlineto
          endchar
        </CharString>
        <CharString name="Thorn">
          1525 1466 741 rmoveto
          280 -245 118 -397 vhcurveto
          -182 36 -16 callgsubr
          -756 -127 vlineto
          142 -19 19 -20 -87 vvcurveto
          -938 vlineto
          -87 -19 -20 -106 callsubr
          -37 callsubr
          45 vlineto
          182 1 rlineto
          381 1 261 148 277 vvcurveto
          -445 -22 rmoveto
          -164 -112 -86 -199 -7 vhcurveto
          -68 -2 0 534 68 -3 rlineto
          207 -6 104 -103 -163 vvcurveto
          endchar
        </CharString>
        <CharString name="Tlinebelow">
          -17 callsubr
          -1036 -1416 0 callsubr
        </CharString>
        <CharString name="Tsecyrillic">
          1812 1769 154 rmoveto
          -201 1036 hlineto
          88 115 callsubr
          -732 -127 vlineto
          129 -19 18 -19 -83 vvcurveto
          -1042 -502 1042 38 callsubr
          -86 callsubr
          -85 callsubr
          -106 callsubr
          1264 vlineto
          200 41 -28 -284 90 hvcurveto
          125 hlineto
          endchar
        </CharString>
        <CharString name="Tshecyrillic">
          1953 235 callsubr
          346 vlineto
          27 43 72 16 81 hhcurveto
          154 86 -83 -174 hvcurveto
          -386 572 127 vlineto
          -130 19 -19 18 83 vvcurveto
          160 vlineto
          318 -205 119 -284 -167 -130 -39 -43 -73 vhcurveto
          533 89 callgsubr
        </CharString>
        <CharString name="U">
          1628 186 1197 -90 callsubr
        </CharString>
        <CharString name="Uacute">
          1628 870 -96 callsubr
          -82 callgsubr
          -526 -358 -90 callsubr
        </CharString>
        <CharString name="Ubreve">
          1628 885 84 callsubr
          -2 22 -3 -99 callgsubr
          21 callgsubr
          -699 -373 -90 callsubr
        </CharString>
        <CharString name="Ubrevecyrillic">
          1545 851 -61 callgsubr
          -88 -83 -64 callgsubr
          -50 -45 10 16 -38 hvcurveto
          23 23 14 33 35 vvcurveto
          76 104 callgsubr
          -611 -1408 212 callsubr
        </CharString>
        <CharString name="Ucaron">
          1628 1115 1 callsubr
          111 callgsubr
          217 321 rlineto
          -1085 -679 -90 callsubr
        </CharString>
        <CharString name="Ucircumflex">
          1628 692 -31 callsubr
          -23 callsubr
          103 callsubr
          -350 -358 -90 callsubr
        </CharString>
        <CharString name="Ucircumflexbelow">
          136 callsubr
          459 -1676 80 callsubr
          -91 callgsubr
        </CharString>
        <CharString name="Ucyrillic">
          1545 240 149 212 callsubr
        </CharString>
        <CharString name="Udblgrave">
          1628 720 1876 185 callsubr
          -992 -358 -90 callsubr
        </CharString>
        <CharString name="Udieresis">
          1628 690 29 callsubr
          -33 callsubr
          390 hmoveto
          22 callsubr
          -894 -369 -90 callsubr
        </CharString>
        <CharString name="Udieresisacute">
          1628 1252 -24 callsubr
          46 callsubr
          183 -260 rmoveto
          -47 callsubr
          -18 28 callsubr
          -47 callsubr
          -3 callsubr
          -882 -351 -90 callsubr
        </CharString>
        <CharString name="Udieresisbelow">
          136 callsubr
          428 -1650 rmoveto
          97 78 66 93 94 -78 66 -97 -96 -78 -66 -94 -93 78 -66 96 hvcurveto
          40 callgsubr
        </CharString>
        <CharString name="Udieresiscaron">
          1628 1250 2064 rmoveto
          -365 80 callgsubr
          -549 -413 rmoveto
          -47 callsubr
          -18 28 callsubr
          -47 callsubr
          -3 callsubr
          -882 -351 -90 callsubr
        </CharString>
        <CharString name="Udieresisgrave">
          1628 518 -10 callsubr
          183 -522 rmoveto
          -47 callsubr
          -18 28 callsubr
          -47 callsubr
          -3 callsubr
          -882 -351 -90 callsubr
        </CharString>
        <CharString name="Udieresismacron">
          1628 518 1867 -106 callgsubr
          183 -463 rmoveto
          -47 callsubr
          -18 28 callsubr
          -47 callsubr
          -3 callsubr
          -882 -351 -90 callsubr
        </CharString>
        <CharString name="Udotbelow">
          136 callsubr
          673 -1331 -5 callsubr
        </CharString>
        <CharString name="Ugrave">
          1628 934 82 callgsubr
          -365 -667 -90 callsubr
        </CharString>
        <CharString name="Uhookabove">
          1628 925 82 callsubr
          28 52 -8 callsubr
          130 -55 callgsubr
          -739 -724 -90 callsubr
        </CharString>
        <CharString name="Uhorn">
          1779 186 547 rmoveto
          -29 callsubr
          210 callsubr
          endchar
        </CharString>
        <CharString name="Uhornacute">
          1779 878 1555 rmoveto
          379 309 rlineto
          12 -81 callgsubr
          -534 -1008 rmoveto
          -29 callsubr
          210 callsubr
          endchar
        </CharString>
        <CharString name="Uhorndotbelow">
          1779 186 547 rmoveto
          -29 callsubr
          210 callsubr
          649 -1322 161 callsubr
        </CharString>
        <CharString name="Uhorngrave">
          1779 941 150 callsubr
          -373 -1317 rmoveto
          -29 callsubr
          210 callsubr
          endchar
        </CharString>
        <CharString name="Uhornhookabove">
          1779 932 82 callsubr
          29 51 -8 callsubr
          -34 callgsubr
          -91 63 -131 vhcurveto
          -746 -1374 rmoveto
          -29 callsubr
          210 callsubr
          endchar
        </CharString>
        <CharString name="Uhorntilde">
          1779 1037 2 callsubr
          -76 callgsubr
          -62 -53 23 callsubr
          44 hhcurveto
          28 23 -14 -23 36 -21 callgsubr
          -851 -997 rmoveto
          -29 callsubr
          210 callsubr
          endchar
        </CharString>
        <CharString name="Uhungarumlaut">
          1628 661 1876 9 callgsubr
          -1251 -679 -90 callsubr
        </CharString>
        <CharString name="Uinvertedbreve">
          1628 885 26 callsubr
          1 -21 4 187 callsubr
          -699 -720 -90 callsubr
        </CharString>
        <CharString name="Umacron">
          1628 549 -69 callsubr
          -363 -585 -90 callsubr
        </CharString>
        <CharString name="Umacrondieresis">
          1628 701 1830 rmoveto
          -47 callsubr
          -18 28 callsubr
          -47 callsubr
          -3 callsubr
          -523 -246 rmoveto
          680 145 -680 hlineto
          -359 -532 -90 callsubr
        </CharString>
        <CharString name="Uogonek">
          1628 861 -84 callgsubr
          49 hvcurveto
          122 vlineto
          -11 -14 -25 -8 -28 hhcurveto
          -61 -61 66 105 39 9 35 13 27 hvcurveto
          303 49 185 222 2 323 5 620 rcurveline
          86 18 20 129 19 vhcurveto
          127 -491 -127 vlineto
          142 -19 18 -21 -91 vvcurveto
          5 -579 rlineto
          -1 callgsubr
          -650 vlineto
          -359 255 -203 327 -17 vhcurveto
          -86 -62 -66 -94 -95 vvcurveto
          -129 105 -81 140 vhcurveto
          endchar
        </CharString>
        <CharString name="Upsilondieresisgreek">
          1507 656 1566 rmoveto
          22 callsubr
          198 callsubr
          -825 -431 -65 callsubr
        </CharString>
        <CharString name="Upsilongreek">
          1507 222 1135 -65 callsubr
        </CharString>
        <CharString name="Upsilontonosgreek">
          1965 680 10 callgsubr
          75 125 25 196 callsubr
          -208 -382 -213 188 callsubr
          -508 -103 -38 callgsubr
          endchar
        </CharString>
        <CharString name="Uring">
          1628 580 1762 rmoveto
          -127 129 55 callgsubr
          -129 -86 -128 vhcurveto
          214 63 callgsubr
          -608 -565 -90 callsubr
        </CharString>
        <CharString name="Utilde">
          1628 1030 2 callsubr
          -44 hhcurveto
          -28 105 callsubr
          -63 -52 23 callsubr
          43 -68 callgsubr
          -844 -347 -90 callsubr
        </CharString>
        <CharString name="Utildeacute">
          1628 1252 -24 callsubr
          46 callsubr
          515 -258 -62 callsubr
          104 callsubr
          -78 callgsubr
          -51 -51 99 callgsubr
          76 callgsubr
          -847 -353 -90 callsubr
        </CharString>
        <CharString name="Utildebelow">
          136 callsubr
          812 -1655 rmoveto
          119 89 92 241 hvcurveto
          -136 hlineto
          -89 61 callgsubr
          -64 hhcurveto
          -120 14 callgsubr
        </CharString>
        <CharString name="V">
          1565 204 1116 rmoveto
          220 callsubr
          endchar
        </CharString>
        <CharString name="Vdotbelow">
          1565 204 1116 rmoveto
          220 callsubr
          593 -1250 rmoveto
          116 callsubr
          -22 callgsubr
        </CharString>
        <CharString name="Vecyrillic">
          1578 1502 432 122 callsubr
        </CharString>
        <CharString name="Vtilde">
          1565 995 2 callsubr
          -76 callgsubr
          -62 -53 23 callsubr
          44 hhcurveto
          28 -58 callgsubr
          -791 -428 rmoveto
          220 callsubr
          endchar
        </CharString>
        <CharString name="W">
          2379 196 1116 13 callsubr
        </CharString>
        <CharString name="Wacute">
          2379 1301 1555 rmoveto
          379 309 rlineto
          12 -81 callgsubr
          -947 -439 13 callsubr
        </CharString>
        <CharString name="Wcircumflex">
          2379 1122 102 callsubr
          157 0 103 callsubr
          -770 -439 13 callsubr
        </CharString>
        <CharString name="Wdieresis">
          2379 1120 29 callsubr
          107 callsubr
          391 hmoveto
          87 69 63 88 88 -69 63 -87 -33 callsubr
          -1315 -450 13 callsubr
        </CharString>
        <CharString name="Wdotaccent">
          2379 1315 -38 callsubr
          109 callsubr
          -1119 -439 13 callsubr
        </CharString>
        <CharString name="Wdotbelow">
          2379 196 1116 rmoveto
          352 -1116 352 0 294 939 278 -939 363 0 347 1114 51 164 29 23 122 16 rlinecurve
          127 -510 -127 vlineto
          145 -20 12 -26 -40 -147 rrcurveto
          -212 -776 -217 765 -45 156 12 26 150 22 rlinecurve
          127 -732 -127 vlineto
          145 -20 13 -26 -41 -147 rrcurveto
          -214 -778 -215 767 -43 156 10 26 150 22 rlinecurve
          127 108 callgsubr
          998 -1250 -40 callsubr
        </CharString>
        <CharString name="Wgrave">
          2379 1364 150 callsubr
          -786 -748 13 callsubr
        </CharString>
        <CharString name="X">
          1534 295 335 53 callsubr
        </CharString>
        <CharString name="Xdieresis">
          1534 677 75 callsubr
          69 -63 87 hvcurveto
          198 callsubr
          -773 -1231 53 callsubr
        </CharString>
        <CharString name="Xdotaccent">
          1534 872 -13 callsubr
          -577 -1220 53 callsubr
        </CharString>
        <CharString name="Xigreek">
          1416 1330 1444 rmoveto
          -1245 hlineto
          101 callgsubr
          392 hlineto
          225 53 -19 -205 48 hvcurveto
          121 hlineto
          -717 -296 rmoveto
          147 hlineto
          105 37 -37 -140 27 hvcurveto
          113 511 -113 hlineto
          -140 -27 -37 -36 -105 hhcurveto
          -147 hlineto
          -104 -37 98 callgsubr
          37 37 104 hhcurveto
          707 -643 rmoveto
          22 542 rlineto
          -121 hlineto
          -239 -54 -56 -22 -238 hhcurveto
          -372 hlineto
          -239 -55 22 239 -54 hvcurveto
          -121 hlineto
          22 -542 rlineto
          endchar
        </CharString>
        <CharString name="Xigreek.1">
          1417 635 643 rmoveto
          16 -362 -128 hlineto
          -239 -55 22 239 -54 hvcurveto
          -121 hlineto
          21 -542 1267 0 21 542 rlineto
          -120 hlineto
          -239 -55 -55 -22 -239 hhcurveto
          -127 362 15 hlineto
          105 36 -37 -140 27 hvcurveto
          114 511 -114 hlineto
          -140 -27 -36 -36 -105 hhcurveto
          -15 362 137 hlineto
          225 53 -19 -205 49 hvcurveto
          120 hlineto
          -20 505 -1245 0 101 callgsubr
          138 -362 -16 hlineto
          -105 -36 98 callgsubr
          36 37 105 hhcurveto
          endchar
        </CharString>
        <CharString name="Y">
          1507 222 1135 -65 callsubr
        </CharString>
        <CharString name="Yacute">
          1507 837 -96 callsubr
          -87 callsubr
          -457 -420 -65 callsubr
        </CharString>
        <CharString name="Ycircumflex">
          1507 659 -31 callsubr
          -23 callsubr
          -217 321 -303 0 -217 -321 rlineto
          -281 -420 -65 callsubr
        </CharString>
        <CharString name="Ydieresis">
          1507 656 1566 rmoveto
          22 callsubr
          198 callsubr
          -825 -431 -65 callsubr
        </CharString>
        <CharString name="Ydotaccent">
          1507 852 -93 callgsubr
          -630 -420 -65 callsubr
        </CharString>
        <CharString name="Ydotbelow">
          1507 222 10 callgsubr
          74 125 26 196 callsubr
          -209 -382 -212 188 callsubr
          552 -1269 51 callsubr
          -6 callsubr
        </CharString>
        <CharString name="Yericyrillic">
          2292 1465 -74 callgsubr
          97 21 26 150 19 -20 callgsubr
          -85 callsubr
          -106 callsubr
          816 vlineto
          379 213 195 267 hvcurveto
          609 -208 rmoveto
          936 101 callsubr
          -745 -48 callsubr
          -85 callsubr
          -106 callsubr
          745 127 vlineto
          -142 19 -18 20 88 vvcurveto
          -1055 200 rmoveto
          -180 -88 31 callgsubr
        </CharString>
        <CharString name="Ygrave">
          1507 901 149 callsubr
          -296 -729 -65 callsubr
        </CharString>
        <CharString name="Yhookabove">
          1507 892 -67 callgsubr
          52 14 52 hhcurveto
          70 41 -24 -43 -40 -33 -39 -105 -64 hvcurveto
          131 -55 callgsubr
          -670 -786 -65 callsubr
        </CharString>
        <CharString name="Yicyrillic">
          860 235 29 callsubr
          -33 callsubr
          390 hmoveto
          22 callsubr
          17 -1312 -84 callsubr
        </CharString>
        <CharString name="Ymacron">
          1507 516 -69 callsubr
          -294 -647 -65 callsubr
        </CharString>
        <CharString name="Ytilde">
          1507 997 2 callsubr
          -44 hhcurveto
          -28 -23 13 24 -36 hvcurveto
          -31 22 rlineto
          41 -63 -52 22 -66 hhcurveto
          -126 -93 -97 -252 hvcurveto
          146 hlineto
          92 1 17 36 44 -68 callgsubr
          -775 -409 -65 callsubr
        </CharString>
        <CharString name="Z">
          1378 1289 hmoveto
          -52 callsubr
          -46 callsubr
          27 callsubr
        </CharString>
        <CharString name="Zacute">
          1378 693 -96 callsubr
          -81 callgsubr
          753 -1555 rmoveto
          -52 callsubr
          -46 callsubr
          27 callsubr
        </CharString>
        <CharString name="Zcaron">
          1378 938 1 callsubr
          143 callsubr
          195 -1876 rmoveto
          -52 callsubr
          -46 callsubr
          27 callsubr
        </CharString>
        <CharString name="Zcircumflex">
          1378 515 -31 callsubr
          -23 callsubr
          103 callsubr
          930 -1555 rmoveto
          -52 callsubr
          -46 callsubr
          27 callsubr
        </CharString>
        <CharString name="Zdotaccent">
          1378 708 -38 callsubr
          110 callsubr
          581 -1555 rmoveto
          -52 callsubr
          -46 callsubr
          27 callsubr
        </CharString>
        <CharString name="Zdotbelow">
          1378 1289 hmoveto
          -52 callsubr
          -46 callsubr
          -251 -86 callgsubr
          183 callsubr
          626 -138 51 callsubr
          -67 94 93 77 67 94 94 -76 66 -94 hvcurveto
          endchar
        </CharString>
        <CharString name="Zecyrillic">
          1371 1295 425 rmoveto
          217 -174 122 -247 23 vhcurveto
          210 36 169 111 186 vvcurveto
          227 -221 130 -407 -199 -193 -51 -58 -98 vhcurveto
          -9 -363 rlineto
          120 hlineto
          213 50 105 88 170 hhcurveto
          150 91 -88 -146 -159 -110 -97 -178 hvcurveto
          -120 -152 120 hlineto
          204 118 -91 -168 -172 -116 -95 -166 -160 -124 78 229 -52 hvcurveto
          -120 hlineto
          9 -363 rlineto
          -64 113 201 -51 189 hhcurveto
          375 300 170 288 hvcurveto
          endchar
        </CharString>
        <CharString name="Zetagreek">
          1378 1289 hmoveto
          -52 callsubr
          -46 callsubr
          27 callsubr
        </CharString>
        <CharString name="Zhecyrillic">
          2246 452 hmoveto
          361 655 rlineto
          103 -408 hlineto
          -85 -18 -18 -131 -17 vhcurveto
          -127 691 127 vlineto
          -131 17 -18 18 85 vvcurveto
          408 103 vlineto
          361 -655 rlineto
          479 121 hlineto
          -72 27 -32 38 -130 228 rrcurveto
          -308 540 119 125 178 184 53 32 144 22 rlinecurve
          127 -584 -127 vlineto
          136 -15 24 -39 -91 -110 -282 -344 rcurveline
          -98 388 hlineto
          85 18 18 131 17 vhcurveto
          127 -691 -127 vlineto
          131 -17 18 -18 -85 vvcurveto
          -388 -98 vlineto
          -282 344 -91 110 24 39 135 15 rlinecurve
          127 -583 -127 vlineto
          143 -22 42 -28 176 -185 rrcurveto
          140 -152 -294 -516 -130 -228 -33 -38 -70 -27 rlinecurve
          -121 vlineto
          endchar
        </CharString>
        <CharString name="Zlinebelow">
          1378 1289 hmoveto
          -52 callsubr
          -46 callsubr
          -251 -86 callgsubr
          183 callsubr
          279 -391 rmoveto
          694 186 -694 hlineto
          endchar
        </CharString>
        <CharString name="a">
          1302 382 -25 -100 callsubr
        </CharString>
        <CharString name="a.dnum">
          854 252 -15 -14 callgsubr
          71 -202 -200 -119 -79 -91 -58 45 -38 68 68 48 47 60 18 -5 17 -9 15 vhcurveto
          1 59 callgsubr
          -42 -65 -74 -87 vvcurveto
          -86 70 -65 50 callgsubr
          -17 -13 -29 -13 -35 hhcurveto
          -39 -33 21 40 hvcurveto
          endchar
        </CharString>
        <CharString name="a.numr">
          854 252 600 -14 callgsubr
          72 -202 -200 -119 -80 -91 -58 45 -38 68 68 48 47 60 19 -5 17 -9 14 vhcurveto
          2 12 11 0 13 hhcurveto
          82 46 -38 -87 hvcurveto
          -23 vlineto
          -130 -26 rlineto
          -210 -43 -65 -74 -87 vvcurveto
          -85 70 -66 50 callgsubr
          -16 -13 -29 -14 -35 hhcurveto
          -39 -33 21 40 hvcurveto
          endchar
        </CharString>
        <CharString name="a.sups">
          854 252 772 rmoveto
          107 81 42 64 39 hvcurveto
          -62 20 78 -40 85 hhcurveto
          65 52 16 23 31 hvcurveto
          81 vlineto
          -1 -6 -9 -1 -11 hhcurveto
          -30 -25 19 44 hvcurveto
          209 vlineto
          171 -119 71 -202 -200 -119 -79 -91 -59 45 -37 68 68 48 47 60 18 -5 17 -9 14 vhcurveto
          2 59 callgsubr
          -43 -65 -74 -86 vvcurveto
          -86 70 -65 119 vhcurveto
          67 195 rmoveto
          44 32 28 87 17 vhcurveto
          30 6 rlineto
          -127 vlineto
          -16 -13 -29 -13 -35 hhcurveto
          -39 -33 20 41 hvcurveto
          endchar
        </CharString>
        <CharString name="aacute">
          1302 571 -82 callsubr
          -29 -1207 -100 callsubr
        </CharString>
        <CharString name="abreve">
          1302 603 63 callsubr
          -221 -1211 -100 callsubr
        </CharString>
        <CharString name="abreveacute">
          1302 961 -45 callsubr
          358 -343 rmoveto
          221 144 100 callsubr
          -5 -86 106 callsubr
          -5 hvcurveto
          -144 hlineto
          -190 -8 144 -115 222 hhcurveto
          -221 -1161 -100 callsubr
        </CharString>
        <CharString name="abrevecyrillic">
          1302 603 -13 callgsubr
          -221 -1202 -100 callsubr
        </CharString>
        <CharString name="abrevedotbelow">
          1302 603 63 callsubr
          -221 -1211 52 callsubr
          217 -763 -41 callsubr
        </CharString>
        <CharString name="abrevegrave">
          1302 245 -32 callsubr
          358 -651 rmoveto
          221 144 100 callsubr
          -5 -86 106 callsubr
          -5 hvcurveto
          -144 hlineto
          -190 -8 144 -115 222 hhcurveto
          -221 -1161 -100 callsubr
        </CharString>
        <CharString name="abrevehookabove">
          1302 592 83 callsubr
          61 14 52 hhcurveto
          83 40 -29 -39 -39 -40 -29 -98 -20 hvcurveto
          110 -72 rlineto
          164 callsubr
          11 -647 rmoveto
          221 144 100 callsubr
          -5 -86 106 callsubr
          -5 hvcurveto
          -144 hlineto
          -190 -8 144 -115 222 hhcurveto
          -221 -1161 -100 callsubr
        </CharString>
        <CharString name="abrevetilde">
          1302 747 44 callsubr
          18 callsubr
          -41 callgsubr
          -144 -368 rmoveto
          221 144 100 callsubr
          -5 -86 106 callsubr
          -5 hvcurveto
          -144 hlineto
          -190 -8 144 -115 222 hhcurveto
          -221 -1161 -100 callsubr
        </CharString>
        <CharString name="acaron">
          1302 833 -76 callsubr
          -26 callgsubr
          -610 -1618 -100 callsubr
        </CharString>
        <CharString name="acircumflex">
          1302 373 -75 callsubr
          73 callsubr
          169 -1207 -100 callsubr
        </CharString>
        <CharString name="acircumflexacute">
          1302 961 -45 callsubr
          1 -336 -70 callsubr
          136 -1293 -100 callsubr
        </CharString>
        <CharString name="acircumflexdotbelow">
          1302 373 -75 callsubr
          73 callsubr
          169 -1207 52 callsubr
          217 -763 -41 callsubr
        </CharString>
        <CharString name="acircumflexgrave">
          1302 245 -32 callsubr
          1 -644 -70 callsubr
          136 -1293 -100 callsubr
        </CharString>
        <CharString name="acircumflexhookabove">
          1302 877 83 callsubr
          144 callsubr
          164 callsubr
          -631 -640 -70 callsubr
          136 -1293 -100 callsubr
        </CharString>
        <CharString name="acircumflextilde">
          1302 747 44 callsubr
          18 callsubr
          -41 callgsubr
          -501 -361 -70 callsubr
          136 -1293 -100 callsubr
        </CharString>
        <CharString name="acute">
          1024 481 34 callsubr
          -406 vlineto
          -155 -412 rlineto
          endchar
        </CharString>
        <CharString name="acutecmb">
          0 -31 34 callsubr
          -406 vlineto
          -155 -412 rlineto
          endchar
        </CharString>
        <CharString name="acutecmb.short">
          0 -15 1151 rmoveto
          380 309 rlineto
          12 -81 callgsubr
          endchar
        </CharString>
        <CharString name="acutedotaccentcmb">
          0 1454 vmoveto
          75 callgsubr
          358 -212 rmoveto
          208 vlineto
          -716 -188 rlineto
          -120 vlineto
          endchar
        </CharString>
        <CharString name="acutedotaccentcmb.short">
          0 1783 vmoveto
          78 62 51 70 71 -62 50 -78 -77 -63 -50 -71 -70 62 -51 78 hvcurveto
          367 -164 rmoveto
          177 vlineto
          46 callsubr
          endchar
        </CharString>
        <CharString name="acyrillic">
          1302 382 -25 -100 callsubr
        </CharString>
        <CharString name="adblgrave">
          1302 383 135 callsubr
          -504 -1207 -100 callsubr
        </CharString>
        <CharString name="adieresis">
          1302 340 167 callsubr
          -484 -1230 -100 callsubr
        </CharString>
        <CharString name="adieresismacron">
          1302 245 132 callsubr
          -65 callgsubr
          37 callsubr
          -414 -1184 -100 callsubr
        </CharString>
        <CharString name="adotaccent">
          1302 603 -71 callsubr
          -32 callgsubr
          -221 -1219 -100 callsubr
        </CharString>
        <CharString name="adotbelow">
          1302 382 -25 52 callsubr
          217 -763 -41 callsubr
        </CharString>
        <CharString name="adotmacron">
          1302 245 1527 45 callsubr
          33 callgsubr
          -221 -1176 -100 callsubr
        </CharString>
        <CharString name="ae">
          1794 397 -25 169 callsubr
        </CharString>
        <CharString name="aeacute">
          1794 895 -82 callsubr
          -338 -1207 169 callsubr
        </CharString>
        <CharString name="aemacron">
          1794 553 32 callsubr
          -156 -1495 169 callsubr
        </CharString>
        <CharString name="agrave">
          1302 637 -53 callsubr
          41 callsubr
          151 -1604 -100 callsubr
        </CharString>
        <CharString name="ahookabove">
          1302 657 -16 callsubr
          -275 -1627 -100 callsubr
        </CharString>
        <CharString name="ainvertedbreve">
          1302 603 184 callsubr
          -221 -1615 -100 callsubr
        </CharString>
        <CharString name="alphagreek">
          1426 489 -23 208 callsubr
        </CharString>
        <CharString name="alphatonosgreek">
          1426 760 1182 257 callsubr
          -99 -1205 208 callsubr
        </CharString>
        <CharString name="amacron">
          1302 229 32 callsubr
          153 -1495 -100 callsubr
        </CharString>
        <CharString name="ampersand">
          1740 558 -29 rmoveto
          190 133 76 132 142 hvcurveto
          182 -179 rlineto
          493 121 hlineto
          -75 26 -67 46 -214 208 rrcurveto
          -59 57 114 128 150 167 46 27 105 14 rlinecurve
          127 -487 -127 vlineto
          123 -20 12 -29 -84 -118 rrcurveto
          -62 -88 -310 301 rlineto
          207 73 115 109 140 vvcurveto
          180 -155 135 -274 -313 -187 -174 -207 -110 46 -92 106 -124 vhcurveto
          -238 -75 -125 -140 -188 vvcurveto
          -238 202 -158 284 vhcurveto
          91 1207 rmoveto
          81 58 48 76 85 53 -66 -99 -3 vhcurveto
          -3 -85 -33 -76 -79 -55 rrcurveto
          -117 119 -37 61 72 vvcurveto
          -213 -677 rmoveto
          75 26 58 56 44 vhcurveto
          37 -39 42 -42 47 -46 304 -299 rcurveline
          -41 -60 -59 -16 -66 hhcurveto
          -183 -144 123 183 hvcurveto
          endchar
        </CharString>
        <CharString name="anoteleiagreek">
          625 312 633 rmoveto
          -56 callsubr
          86 callsubr
          endchar
        </CharString>
        <CharString name="aogonek">
          1301 382 -25 rmoveto
          172 132 72 101 63 hvcurveto
          32 -92 114 -62 127 -4 rrcurveto
          -195 -103 -62 -93 -99 vvcurveto
          -116 104 -72 140 98 106 36 61 53 vhcurveto
          122 vlineto
          -11 -15 -30 -9 -32 hhcurveto
          -51 -43 30 61 81 58 70 112 96 hvcurveto
          121 vlineto
          -4 -12 -15 -2 -19 hhcurveto
          -52 -43 32 80 hvcurveto
          403 vlineto
          274 -188 117 -316 -312 -197 -126 -152 -92 70 -60 104 105 74 71 92 36 -13 33 -20 26 vhcurveto
          5 26 28 3 30 hhcurveto
          138 80 -64 -159 hvcurveto
          -52 vlineto
          -220 -47 rlineto
          -332 -70 -110 -118 -155 vvcurveto
          -149 118 -112 193 vhcurveto
          73 324 rmoveto
          86 58 53 153 34 vhcurveto
          67 15 rlineto
          -246 vlineto
          -39 -25 -54 -29 -65 hhcurveto
          -75 -59 45 81 hvcurveto
          endchar
        </CharString>
        <CharString name="approxequal">
          1331 924 889 rmoveto
          -133 -190 210 -203 hhcurveto
          -217 -130 -152 -320 hvcurveto
          230 hlineto
          150 2 43 58 80 134 191 -211 202 hhcurveto
          217 130 152 320 hvcurveto
          -231 hlineto
          -149 -1 -43 -58 -81 hhcurveto
          -533 vmoveto
          5 callgsubr
          -211 202 hhcurveto
          217 130 152 321 hvcurveto
          -231 hlineto
          -150 -1 -43 -58 -81 hhcurveto
          endchar
        </CharString>
        <CharString name="aring">
          1302 265 91 callsubr
          3 callgsubr
          -120 -1413 -100 callsubr
        </CharString>
        <CharString name="aringacute">
          1302 961 91 callgsubr
          106 67 103 103 -106 67 -162 hvcurveto
          -93 hlineto
          -161 -107 -67 -103 -103 107 -67 161 hvcurveto
          69 114 rmoveto
          -45 hlineto
          -47 -26 22 34 34 27 22 46 hvcurveto
          45 hlineto
          46 27 -22 -34 -34 -27 -22 -46 hvcurveto
          -243 -1265 -100 callsubr
        </CharString>
        <CharString name="aringbelow">
          1302 382 -25 52 callsubr
          -121 -593 rmoveto
          -125 143 -82 195 247 callsubr
          -195 -143 -82 -125 vhcurveto
          237 hmoveto
          53 45 36 56 56 44 -36 -53 -53 -44 -36 -56 -56 -45 37 52 vhcurveto
          endchar
        </CharString>
        <CharString name="asciicircum">
          1331 596 1444 rmoveto
          -502 -604 176 -165 392 468 393 -468 183 165 -500 604 rlineto
          endchar
        </CharString>
        <CharString name="asciitilde">
          1331 924 610 rmoveto
          5 callgsubr
          -210 202 hhcurveto
          217 130 152 320 hvcurveto
          -231 hlineto
          -150 -1 -43 -58 -81 hhcurveto
          endchar
        </CharString>
        <CharString name="asterisk">
          943 447 1088 rmoveto
          48 hlineto
          70 199 rlineto
          117 46 -70 74 -70 hhcurveto
          -72 -68 -72 -119 47 hvcurveto
          117 -199 rmoveto
          24 -43 207 40 rlineto
          124 18 28 98 -34 61 -36 62 -98 23 -78 -100 rrcurveto
          -209 -202 rmoveto
          24 43 -136 159 rlineto
          -78 100 -99 -25 -35 -60 -36 -63 28 -95 126 -19 rrcurveto
          230 -83 rmoveto
          -24 43 -206 -40 rlineto
          -124 -18 -29 -98 35 -60 36 -63 97 -23 79 100 rrcurveto
          208 202 rmoveto
          -24 -43 137 -159 rlineto
          77 -99 100 24 35 61 36 62 -28 95 -126 19 rrcurveto
          -231 -3 rmoveto
          -48 hlineto
          -69 -199 rlineto
          -118 -46 70 -73 69 hhcurveto
          72 69 73 118 -47 hvcurveto
          endchar
        </CharString>
        <CharString name="at">
          2126 565 399 rmoveto
          -225 94 -121 149 131 111 73 139 71 vhcurveto
          -144 6 90 -95 196 hhcurveto
          348 283 277 424 446 -359 309 -552 -669 -379 -521 -515 -540 379 -325 476 191 185 58 68 80 hvcurveto
          -1 126 rlineto
          -67 -128 -129 -21 -167 hhcurveto
          -407 -291 262 443 429 315 440 546 466 257 -251 -368 -293 -166 -180 -165 -80 -12 36 101 21 hvcurveto
          135 631 -230 0 -99 -111 rlineto
          87 -37 -82 52 -117 hhcurveto
          -274 -186 -303 -321 hvcurveto
          344 9 rmoveto
          192 90 285 130 57 35 -48 -88 -11 vhcurveto
          -64 -297 rlineto
          -112 -23 -66 -77 -68 hhcurveto
          -52 -28 48 97 hvcurveto
          endchar
        </CharString>
        <CharString name="atilde">
          1302 752 -39 callsubr
          141 callsubr
          -129 -96 147 callsubr
          -370 -1228 -100 callsubr
        </CharString>
        <CharString name="austral">
          1557 204 332 rmoveto
          -59 -164 -24 -24 -124 -17 rrcurveto
          -127 516 127 vlineto
          -153 22 -21 29 53 154 rrcurveto
          13 37 521 0 12 -37 53 -154 -21 -29 -152 -22 rlinecurve
          -127 743 127 vlineto
          -124 17 -26 24 -59 161 -15 40 rcurveline
          224 100 -260 hlineto
          -63 176 rlineto
          323 100 -360 hlineto
          -253 699 -338 0 -255 -699 rlineto
          -358 -100 322 hlineto
          -64 -176 rlineto
          -258 -100 221 hlineto
          315 376 rmoveto
          133 391 132 -391 rlineto
          -359 -276 rmoveto
          59 176 334 0 60 -176 rlineto
          endchar
        </CharString>
        <CharString name="austral.tnum">
          1331 -5 461 rmoveto
          -100 171 vlineto
          -9 -32 -49 -164 -14 -27 -98 -11 rlinecurve
          -127 431 127 vlineto
          -125 15 -13 23 45 162 rrcurveto
          10 34 406 0 9 -34 44 -162 -12 -21 -132 -17 rlinecurve
          -127 676 127 vlineto
          -98 11 -14 26 -49 164 -10 33 rcurveline
          173 100 -203 hlineto
          -52 175 rlineto
          255 100 -285 hlineto
          -211 708 -350 0 -212 -708 rlineto
          -284 -100 254 hlineto
          -53 -175 rlineto
          252 275 rmoveto
          100 361 99 -361 rlineto
          -276 -275 rmoveto
          49 175 254 0 48 -175 rlineto
          endchar
        </CharString>
        <CharString name="b">
          -54 callgsubr
          endchar
        </CharString>
        <CharString name="backslash">
          808 504 -280 rmoveto
          298 hlineto
          -498 1860 rlineto
          -298 hlineto
          endchar
        </CharString>
        <CharString name="baht">
          1539 51 30 rmoveto
          700 -220 100 220 hlineto
          346 6 267 148 258 vvcurveto
          206 -162 128 -249 17 vhcurveto
          195 20 165 94 188 vvcurveto
          197 -196 118 -366 4 vhcurveto
          218 -100 -218 -700 -127 vlineto
          142 -19 18 -20 -88 vvcurveto
          -876 vlineto
          -88 -18 -20 -142 -19 vhcurveto
          558 664 rmoveto
          448 vlineto
          122 -3 rlineto
          -1 7 6 0 7 hhcurveto
          -444 vlineto
          -6 0 0 0 hhcurveto
          257 226 rmoveto
          -116 -54 -70 -97 -27 vhcurveto
          414 vlineto
          100 -31 51 -69 -101 vvcurveto
          -393 -372 rmoveto
          142 -496 hlineto
          -7 -6 0 -1 -7 hvcurveto
          -122 -3 rlineto
          436 256 rmoveto
          -128 -72 -78 -122 -31 vhcurveto
          470 vlineto
          125 -28 69 -82 -123 vvcurveto
          endchar
        </CharString>
        <CharString name="baht.tnum">
          1331 32 44 rmoveto
          623 -234 100 234 hlineto
          309 6 245 145 244 46 callgsubr
          184 -171 115 -333 4 vhcurveto
          233 -100 -233 -623 -127 vlineto
          129 -18 18 -19 -83 vvcurveto
          -862 -105 callgsubr
          513 649 rmoveto
          436 vlineto
          98 -3 rlineto
          8 -4 0 8 hhcurveto
          -433 vlineto
          -3 -2 0 -3 hhcurveto
          236 226 rmoveto
          -106 -45 -72 -83 -30 vhcurveto
          396 vlineto
          82 -30 46 -64 -94 vvcurveto
          -338 -370 rmoveto
          102 hlineto
          3 2 0 3 hhcurveto
          -485 vlineto
          -4 -4 0 -4 hhcurveto
          -98 -3 rlineto
          380 246 rmoveto
          -122 -66 -74 -104 -31 vhcurveto
          456 vlineto
          110 -28 60 -77 -124 vvcurveto
          endchar
        </CharString>
        <CharString name="bar">
          808 255 -280 rmoveto
          298 1860 -298 hlineto
          endchar
        </CharString>
        <CharString name="bdotaccent">
          1370 347 1598 rmoveto
          250 callsubr
          95 callsubr
          947 -1063 214 callsubr
          endchar
        </CharString>
        <CharString name="bdotbelow">
          -54 callgsubr
          -210 -970 -80 callsubr
        </CharString>
        <CharString name="becyrillic">
          1369 1293 509 rmoveto
          304 -211 198 -346 -221 -169 -97 -147 -86 vhcurveto
          -2 16 0 18 17 vvcurveto
          174 85 139 293 26 vhcurveto
          138 12 349 29 91 100 15 249 rlinecurve
          -127 hlineto
          -20 -48 -43 -11 -234 -26 -249 -29 -163 -71 -106 -102 rrcurveto
          -137 -131 -74 -197 -322 vvcurveto
          -375 206 -260 394 336 281 201 333 vhcurveto
          -410 -12 rmoveto
          -244 -73 -114 -119 -122 -74 142 220 218 67 134 133 114 74 -139 -217 vhcurveto
          endchar
        </CharString>
        <CharString name="betagreek">
          1333 123 -460 rmoveto
          407 hlineto
          -6 204 -4 178 -3 156 rrcurveto
          -58 58 98 -45 127 hhcurveto
          232 224 157 288 269 -164 176 -208 32 hvcurveto
          158 15 149 104 173 vvcurveto
          197 -165 159 -336 -333 -234 -172 -405 vhcurveto
          379 90 rmoveto
          205 47 110 127 106 55 -85 -139 -150 -84 -74 -144 -5 vhcurveto
          -255 vlineto
          171 -5 102 -99 -174 vvcurveto
          -162 -92 -72 -108 -69 -65 27 44 -35 vhcurveto
          -9 468 -2 241 125 vvcurveto
          endchar
        </CharString>
        <CharString name="bitcoin">
          1515 51 30 rmoveto
          527 -219 100 219 130 hlineto
          17 17 0 1 17 hvcurveto
          -220 100 228 vlineto
          280 37 201 142 224 vvcurveto
          206 -161 128 -249 17 vhcurveto
          194 20 165 94 188 vvcurveto
          172 -148 112 -282 28 vhcurveto
          225 -100 -219 vlineto
          1 -17 -16 0 -18 hhcurveto
          -130 218 -100 -218 -527 -103 callsubr
          18 -20 -88 vvcurveto
          -876 vlineto
          -88 -18 -20 -142 -19 vhcurveto
          928 890 rmoveto
          -153 -93 -73 -164 vhcurveto
          -113 448 hlineto
          99 -3 rlineto
          179 -6 92 -77 -136 vvcurveto
          43 -616 rmoveto
          -165 -121 -82 -193 -6 vhcurveto
          -99 -3 rlineto
          500 113 vlineto
          192 108 -90 -154 hvcurveto
          endchar
        </CharString>
        <CharString name="bitcoin.tnum">
          1331 32 44 rmoveto
          452 -233 100 233 153 hlineto
          9 10 0 9 hhcurveto
          -233 100 241 vlineto
          255 35 189 138 214 46 callgsubr
          163 -133 108 -261 26 vhcurveto
          238 -100 -232 vlineto
          -9 -9 0 -10 hhcurveto
          -153 232 -100 -232 -452 -24 callgsubr
          -862 -105 callgsubr
          844 875 rmoveto
          -146 -84 -80 -152 vhcurveto
          -88 436 hlineto
          84 -3 rlineto
          150 -4 90 -72 -131 vvcurveto
          43 -617 rmoveto
          -156 -118 -78 -165 -4 vhcurveto
          -84 -3 rlineto
          488 88 vlineto
          177 102 -91 -156 hvcurveto
          endchar
        </CharString>
        <CharString name="blinebelow">
          -54 callgsubr
          -558 -893 0 callsubr
        </CharString>
        <CharString name="braceleft">
          808 569 1030 rmoveto
          160 vlineto
          143 11 120 173 vhcurveto
          127 -48 vlineto
          -335 -151 -133 -247 hvcurveto
          -286 vlineto
          -154 -69 -49 -120 vhcurveto
          -122 vlineto
          120 69 -48 -154 hvcurveto
          -287 vlineto
          -247 151 -133 335 vhcurveto
          48 127 hlineto
          -173 -11 120 144 hvcurveto
          159 vlineto
          234 -125 111 -210 35 vhcurveto
          210 36 125 110 234 vvcurveto
          endchar
        </CharString>
        <CharString name="braceright">
          808 239 1030 rmoveto
          -234 125 -110 210 -36 vhcurveto
          -210 -35 -125 -111 -234 vvcurveto
          -159 vlineto
          -144 -11 -120 -173 vhcurveto
          -127 48 vlineto
          334 152 133 247 hvcurveto
          287 vlineto
          154 68 48 121 vhcurveto
          122 vlineto
          -121 -68 49 154 hvcurveto
          286 vlineto
          247 -152 133 -334 vhcurveto
          -48 -127 hlineto
          173 11 -120 -143 hvcurveto
          endchar
        </CharString>
        <CharString name="bracketleft">
          808 184 -280 rmoveto
          577 127 -242 1606 242 127 -577 hlineto
          endchar
        </CharString>
        <CharString name="bracketright">
          808 624 1580 rmoveto
          -577 -127 242 -1606 -242 -127 577 hlineto
          endchar
        </CharString>
        <CharString name="breve">
          1024 512 -66 callgsubr
          -95 callgsubr
          -146 vlineto
          -4 159 callsubr
          endchar
        </CharString>
        <CharString name="breveacutecmb">
          -77 callgsubr
          358 -343 127 callsubr
        </CharString>
        <CharString name="breveacutecmb.short">
          165 callsubr
          367 -281 rmoveto
          227 20 callgsubr
        </CharString>
        <CharString name="brevebelowcmb">
          0 -475 vmoveto
          225 127 135 165 23 -1 23 -4 17 hvcurveto
          -136 -4 hlineto
          -85 -82 -62 -129 -127 -84 63 84 vhcurveto
          4 -136 vlineto
          -4 -18 -1 -22 -23 vvcurveto
          -165 127 -135 225 vhcurveto
          endchar
        </CharString>
        <CharString name="brevecmb">
          0 1186 vmoveto
          242 137 150 183 26 -2 25 -95 callgsubr
          -146 vlineto
          -4 159 callsubr
          endchar
        </CharString>
        <CharString name="brevecmb.short">
          0 1166 vmoveto
          226 128 131 156 22 -2 22 -3 -99 callgsubr
          -124 -83 60 82 vhcurveto
          3 -142 vlineto
          -3 -17 -2 -21 -22 vvcurveto
          -156 128 -131 226 vhcurveto
          endchar
        </CharString>
        <CharString name="brevecyrilliccmb">
          0 1 1177 rmoveto
          226 171 42 callgsubr
          -51 -14 -61 1 rrcurveto
          -61 -52 14 25 -40 hvcurveto
          39 25 26 46 53 vvcurveto
          83 -64 69 -85 -100 -60 -62 -102 -176 170 -122 228 vhcurveto
          endchar
        </CharString>
        <CharString name="brevecyrilliccmb.short">
          0 1557 vmoveto
          225 157 96 151 86 -56 60 -88 -83 -59 -60 -76 -35 14 -32 22 -24 hvcurveto
          -16 -37 -46 -10 -49 hhcurveto
          -50 -45 10 16 -38 hvcurveto
          22 23 15 33 35 vvcurveto
          76 104 callgsubr
          endchar
        </CharString>
        <CharString name="brevegravecmb">
          0 -358 -32 callsubr
          358 -651 127 callsubr
        </CharString>
        <CharString name="brevegravecmb.short">
          0 -367 -10 callsubr
          367 -543 rmoveto
          227 20 callgsubr
        </CharString>
        <CharString name="brevehookabovecmb">
          0 -10 1783 rmoveto
          -90 -88 -32 -43 -55 hvcurveto
          -93 vlineto
          16 34 144 callsubr
          151 33 86 61 104 vvcurveto
          102 -103 66 -143 vhcurveto
          10 -647 127 callsubr
        </CharString>
        <CharString name="brevehookabovecmb.short">
          0 -10 2066 rmoveto
          -92 -91 -27 -36 -56 hvcurveto
          -79 vlineto
          13 35 63 13 53 hhcurveto
          85 41 -25 -33 -33 -42 -26 -100 -16 hvcurveto
          113 -62 rlineto
          153 28 90 97 callgsubr
          20 callgsubr
        </CharString>
        <CharString name="brevetildecmb">
          0 144 44 callsubr
          60 callsubr
          -14 35 -19 callgsubr
          -144 -368 127 callsubr
        </CharString>
        <CharString name="brevetildecmb.short">
          0 148 1832 rmoveto
          135 84 80 137 hvcurveto
          -149 hlineto
          -43 -25 -20 -45 -27 -30 7 12 -37 vhcurveto
          -41 12 rlineto
          16 -50 -52 99 callgsubr
          20 45 27 30 -7 -11 36 vhcurveto
          41 -13 rlineto
          -15 51 52 -13 58 hhcurveto
          -148 -305 rmoveto
          227 20 callgsubr
        </CharString>
        <CharString name="brokenbar">
          808 255 789 rmoveto
          298 791 -298 hlineto
          -1860 vmoveto
          298 791 -298 hlineto
          endchar
        </CharString>
        <CharString name="bullet">
          888 444 307 rmoveto
          168 135 137 167 167 -135 137 -168 -167 -136 -137 -167 -167 136 -137 167 hvcurveto
          endchar
        </CharString>
        <CharString name="c">
          1163 650 -25 19 callsubr
        </CharString>
        <CharString name="cacute">
          1163 628 -82 callsubr
          182 -1207 19 callsubr
        </CharString>
        <CharString name="caret">
          625 254 hmoveto
          -323 -365 142 -140 236 266 238 -266 148 140 -321 365 rlineto
          endchar
        </CharString>
        <CharString name="caron">
          1024 742 -76 callsubr
          35 callsubr
          endchar
        </CharString>
        <CharString name="caroncmb">
          0 230 -76 callsubr
          35 callsubr
          endchar
        </CharString>
        <CharString name="caroncmb.short">
          0 230 1472 rmoveto
          -212 -146 143 callsubr
          endchar
        </CharString>
        <CharString name="carondotaccentcmb">
          0 1454 vmoveto
          75 callgsubr
          357 -6 rmoveto
          -357 -104 -357 104 0 -125 318 -90 callgsubr
          endchar
        </CharString>
        <CharString name="carondotaccentcmb.short">
          0 1806 vmoveto
          78 62 50 71 71 -62 50 -78 -77 -63 -50 -71 -71 62 102 callgsubr
          334 -152 82 0 333 152 rlineto
          endchar
        </CharString>
        <CharString name="caronslovak">
          1024 477 1167 rmoveto
          201 427 -283 0 -48 -427 rlineto
          endchar
        </CharString>
        <CharString name="caronslovakcmb">
          0 148 1167 -103 callgsubr
          endchar
        </CharString>
        <CharString name="ccaron">
          1163 889 -76 callsubr
          142 callsubr
          -399 -1618 19 callsubr
        </CharString>
        <CharString name="ccedilla">
          1163 591 -30 callsubr
          -74 callsubr
          62 63 171 9 144 59 80 88 rlinecurve
          176 callsubr
          -2 callgsubr
        </CharString>
        <CharString name="ccedillaacute">
          1163 628 -82 callsubr
          123 -1675 rmoveto
          -34 callsubr
          -74 callsubr
          62 63 171 9 144 59 80 88 rlinecurve
          176 callsubr
          -2 callgsubr
        </CharString>
        <CharString name="ccircumflex">
          1163 429 -75 callsubr
          -60 callgsubr
          -240 -412 rlineto
          380 -1207 19 callsubr
        </CharString>
        <CharString name="cdotaccent">
          1163 659 133 callsubr
          -9 -1219 19 callsubr
        </CharString>
        <CharString name="cedi">
          1376 787 -188 rmoveto
          100 201 hlineto
          164 9 158 43 83 57 9 362 rcurveline
          -120 hlineto
          -54 -231 -97 -69 -143 -3 rrcurveto
          1082 vlineto
          142 -3 96 -73 52 -224 rrcurveto
          120 hlineto
          -9 363 -95 55 -136 42 -170 9 rlinecurve
          200 -100 -199 vlineto
          -415 -14 -281 -268 -436 vvcurveto
          -421 296 -267 400 -15 vhcurveto
          -285 725 rmoveto
          295 102 179 183 43 vhcurveto
          -1061 vlineto
          -177 50 -108 200 294 vvcurveto
          endchar
        </CharString>
        <CharString name="cedi.tnum">
          1331 765 -188 rmoveto
          100 201 hlineto
          156 9 149 40 85 53 9 360 rcurveline
          -121 hlineto
          -52 -224 -94 -67 -132 -3 rrcurveto
          1082 vlineto
          126 -4 92 -69 50 -217 rrcurveto
          121 hlineto
          -10 360 -91 51 -129 38 -159 9 rlinecurve
          201 -100 -200 vlineto
          -402 -14 -275 -269 1 -434 rrcurveto
          -434 290 -256 386 -13 vhcurveto
          -265 726 rmoveto
          294 93 177 172 43 vhcurveto
          -1059 vlineto
          -169 49 -96 193 303 vvcurveto
          endchar
        </CharString>
        <CharString name="cedilla">
          1024 470 -30 callsubr
          -74 callsubr
          95 callgsubr
          -55 -51 -57 callgsubr
        </CharString>
        <CharString name="cedillacmb">
          0 -42 -30 callsubr
          -74 callsubr
          95 callgsubr
          -54 -52 -57 callgsubr
        </CharString>
        <CharString name="cent">
          1206 722 26 callgsubr
          -40 5 11 -38 217 callsubr
          103 95 49 vhcurveto
          -615 vlineto
          -94 63 -59 109 151 vvcurveto
          endchar
        </CharString>
        <CharString name="cent.1">
          1149 705 47 callgsubr
          -84 hhcurveto
          -203 18 callgsubr
          75 -72 103 96 80 72 111 162 -137 86 callgsubr
          -202 -329 105 callgsubr
        </CharString>
        <CharString name="cent.1.tnum">
          1331 780 47 callgsubr
          -83 hhcurveto
          -204 18 callgsubr
          76 -72 102 96 81 72 111 162 -138 86 callgsubr
          -203 -328 105 callgsubr
        </CharString>
        <CharString name="cent.tnum">
          1331 769 26 callgsubr
          -41 5 11 -37 217 callsubr
          102 95 50 vhcurveto
          -615 vlineto
          -94 63 -59 109 151 vvcurveto
          endchar
        </CharString>
        <CharString name="checyrillic">
          1481 175 701 rmoveto
          -228 161 -106 204 136 126 38 44 64 vhcurveto
          -220 vlineto
          -74 -24 -15 -137 -13 vhcurveto
          -127 703 127 vlineto
          -122 12 -22 16 74 vvcurveto
          582 vlineto
          74 22 16 122 12 vhcurveto
          127 -642 -127 vlineto
          86 -9 14 -15 -73 vvcurveto
          -233 vlineto
          -15 -27 -58 -13 -55 hhcurveto
          -104 -56 51 123 hvcurveto
          87 vlineto
          73 15 16 85 8 vhcurveto
          127 -630 -127 vlineto
          117 -11 22 -17 -74 vvcurveto
          endchar
        </CharString>
        <CharString name="chigreek">
          1264 387 -460 rmoveto
          112 600 120 -261 rlineto
          -272 124 97 -90 171 hhcurveto
          99 92 41 59 54 hvcurveto
          121 vlineto
          -6 -13 -26 -7 -22 hhcurveto
          -75 -46 40 234 -109 hvcurveto
          -142 308 118 234 151 262 163 237 rlinecurve
          -385 hlineto
          -117 -581 -112 242 rlineto
          268 -121 -98 88 -169 hhcurveto
          -99 -92 -41 -59 -54 hvcurveto
          -121 vlineto
          6 13 26 7 22 hhcurveto
          75 47 -39 -235 109 hvcurveto
          131 -286 -135 -274 -153 -269 -141 -206 rlinecurve
          endchar
        </CharString>
        <CharString name="circumflex">
          1024 282 -75 callsubr
          98 callsubr
          endchar
        </CharString>
        <CharString name="circumflexacutecmb">
          -77 callgsubr
          1 -336 137 callsubr
        </CharString>
        <CharString name="circumflexacutecmb.short">
          0 367 1873 rmoveto
          178 vlineto
          46 callsubr
          1 -295 -85 callgsubr
        </CharString>
        <CharString name="circumflexbelowcmb">
          0 -214 -479 rmoveto
          214 175 213 -175 149 0 -223 371 -91 callgsubr
        </CharString>
        <CharString name="circumflexcmb">
          0 -230 -75 callsubr
          98 callsubr
          endchar
        </CharString>
        <CharString name="circumflexcmb.short">
          0 -193 1151 rmoveto
          212 50 callsubr
          103 callsubr
          endchar
        </CharString>
        <CharString name="circumflexgravecmb">
          0 -358 -32 callsubr
          1 -644 137 callsubr
        </CharString>
        <CharString name="circumflexgravecmb.short">
          0 -367 157 callsubr
          1 -557 -85 callgsubr
        </CharString>
        <CharString name="circumflexhookabovecmb">
          0 274 83 callsubr
          62 14 51 hhcurveto
          84 39 -29 -39 -39 -40 -29 -97 -20 hvcurveto
          110 -72 rlineto
          150 33 86 61 104 vvcurveto
          102 -103 66 -144 vhcurveto
          -631 -640 137 callsubr
        </CharString>
</ttFont>
